#N canvas 960 63 960 994 12;
#X text 41 12 Zach Neveu;
#X obj 220 133 soundfiler;
#N canvas 0 0 450 300 (subpatch) 0;
#X array sound0 18078 float 0 black #002b36;
#X coords 0 1 18077 -1 200 140 1;
#X restore 221 197 graph;
#X msg 219 88 read -resize IdioSnare.wav sound0;
#X obj 757 505 tabplay~ sound0;
#X obj 756 456 bng 33 250 50 0 empty empty empty 17 7 0 10 -262144
-1 -1;
#N canvas 0 22 450 300 oscreceive 0;
#X obj 129 125 netreceive -u -b;
#X obj 129 153 oscparse;
#X obj 129 181 list trim;
#X msg 129 100 listen 0 \, listen \$1;
#X obj 129 72 list split 1;
#X obj 129 37 inlet;
#X obj 129 227 outlet;
#X connect 0 0 1 0;
#X connect 1 0 2 0;
#X connect 2 0 6 0;
#X connect 3 0 0 0;
#X connect 4 1 3 0;
#X connect 5 0 4 0;
#X restore 751 338 pd oscreceive;
#X msg 751 297 connect 9002;
#X obj 635 397 print osc;
#X obj 753 399 route trigger;
#X obj 744 16 loadbang;
#X obj 758 573 dac~;
#X obj 219 48 loadbang;
#X connect 3 0 1 0;
#X connect 4 0 11 0;
#X connect 5 0 4 0;
#X connect 6 0 8 0;
#X connect 6 0 9 0;
#X connect 7 0 6 0;
#X connect 9 0 5 0;
#X connect 10 0 7 0;
#X connect 12 0 3 0;
