#N canvas 960 63 960 994 12;
#X obj 44 93 soundfiler;
#N canvas 0 0 450 300 (subpatch) 0;
#X array sound0 18078 float 0 black #002b36;
#X coords 0 1 18077 -1 200 140 1;
#X restore 46 180 graph;
#X msg 43 48 read -resize IdioSnare.wav sound0;
#X obj 43 8 loadbang;
#X obj 825 272 tabplay~ sound0;
#X obj 824 223 bng 33 250 50 0 empty empty empty 17 7 0 10 -262144
-1 -1;
#N canvas 0 22 450 300 oscreceive 0;
#X obj 129 125 netreceive -u -b;
#X obj 129 153 oscparse;
#X obj 129 181 list trim;
#X msg 129 100 listen 0 \, listen \$1;
#X obj 129 72 list split 1;
#X obj 129 37 inlet;
#X obj 129 227 outlet;
#X connect 0 0 1 0;
#X connect 1 0 2 0;
#X connect 2 0 6 0;
#X connect 3 0 0 0;
#X connect 4 1 3 0;
#X connect 5 0 4 0;
#X restore 819 105 pd oscreceive;
#X msg 819 64 connect 9002;
#X obj 740 157 print osc;
#X obj 821 166 route trigger;
#X obj 819 15 loadbang;
#X obj 826 340 dac~;
#X obj 392 90 soundfiler;
#N canvas 0 0 450 300 (subpatch) 0;
#X array sound1 147000 float 0 black #002b36;
#X coords 0 1 146999 -1 200 140 1;
#X restore 386 184 graph;
#X obj 391 5 loadbang;
#X msg 391 45 read -resize 07b01gro072.wav sound1;
#X floatatom 392 119 10 0 0 0 - - -, f 10;
#X obj 668 279 tabread4~ sound1;
#X obj 392 147 s nsamps;
#X obj 687 203 r nsamps;
#X obj 587 102 hsl 128 15 0 1 0 0 empty empty empty -2 -8 0 10 -262144
-1 -1 6050 1;
#X obj 587 126 lop~ 1;
#X obj 669 243 *~;
#X obj 721 72 route scrub;
#X connect 2 0 0 0;
#X connect 3 0 2 0;
#X connect 4 0 11 0;
#X connect 4 0 11 1;
#X connect 5 0 4 0;
#X connect 6 0 8 0;
#X connect 6 0 9 0;
#X connect 6 0 23 0;
#X connect 7 0 6 0;
#X connect 9 0 5 0;
#X connect 10 0 7 0;
#X connect 12 0 16 0;
#X connect 14 0 15 0;
#X connect 15 0 12 0;
#X connect 16 0 18 0;
#X connect 17 0 11 0;
#X connect 17 0 11 1;
#X connect 19 0 22 1;
#X connect 20 0 21 0;
#X connect 21 0 22 0;
#X connect 22 0 17 0;
#X connect 23 0 20 0;
