#N canvas 204 545 450 300 10;
#N canvas 0 22 450 300 oscreceive 1;
#X obj 129 125 netreceive -u -b;
#X obj 129 153 oscparse;
#X obj 129 181 list trim;
#X msg 129 100 listen 0 \, listen \$1;
#X obj 129 72 list split 1;
#X obj 129 37 inlet;
#X obj 129 227 outlet;
#X connect 0 0 1 0;
#X connect 1 0 2 0;
#X connect 2 0 6 0;
#X connect 3 0 0 0;
#X connect 4 1 3 0;
#X connect 5 0 4 0;
#X restore 152 96 pd oscreceive;
#X msg 152 55 connect 9002;
#X obj 152 140 print osc;
#X connect 0 0 2 0;
#X connect 1 0 0 0;
