#N canvas 218 179 649 305 10;
#X obj 106 77 oscformat /test;
#X msg 177 31 set /test2;
#X msg 25 28 1 2 3;
#N canvas 0 22 450 300 oscsend 0;
#X obj 192 220 netsend -u -b;
#X obj 76 154 list prepend send;
#X obj 76 182 list trim;
#X msg 237 177 disconnect;
#X obj 237 97 inlet;
#X obj 76 93 inlet;
#X connect 1 0 2 0;
#X connect 2 0 0 0;
#X connect 3 0 0 0;
#X connect 4 0 3 0;
#X connect 4 0 0 0;
#X connect 5 0 1 0;
#X restore 174 191 pd oscsend;
#X obj 263 30 hsl 128 15 0 1 0 0 empty empty empty -2 -8 0 10 -262144
-1 -1 6050 1;
#X floatatom 260 50 5 0 0 0 - - -, f 5;
#X msg 438 29 connect bela.local 9002;
#X msg 81 29 set /trigger;
#X obj 21 73 bng 39 250 50 0 empty empty empty 17 7 0 10 -262144 -1
-1;
#X msg 247 78 set /scrub;
#X connect 0 0 3 0;
#X connect 1 0 0 0;
#X connect 2 0 0 0;
#X connect 4 0 5 0;
#X connect 5 0 0 0;
#X connect 6 0 3 1;
#X connect 7 0 0 0;
#X connect 8 0 0 0;
#X connect 9 0 0 0;
