#N canvas 960 63 960 994 10;
#X obj 39 163 dac~ 1 2;
#X text 35 32 Hello world!;
#X text 35 42 ============;
#X text 108 115 OMG SINE WAVE;
#X text 215 22 ............................;
#X text 215 32 . ____ ._____ _ .......___ .;
#X text 215 42 .| __ )| ____| |....../ _ |.;
#X text 215 62 .| |_) | |___| |___ / ___ |.;
#X text 215 72 .|____/|_____|_____/_/..._|.io;
#X text 215 82 ............................;
#X text 215 52 .| __ || __|.| |...../ _| |.;
#X obj 39 96 osc~ 40;
#X floatatom 39 72 5 0 0 0 - - -, f 5;
#X obj 39 122 *~ 1;
#X msg 243 218 This is a message;
#X obj 244 261 print;
#X obj 242 182 metro 500;
#X obj 242 139 tgl 28 0 empty empty empty 17 7 0 10 -262144 -1 -1 0
1;
#X obj 242 106 loadbang;
#X connect 11 0 13 0;
#X connect 12 0 11 0;
#X connect 13 0 0 1;
#X connect 13 0 0 0;
#X connect 14 0 15 0;
#X connect 16 0 14 0;
#X connect 17 0 16 0;
#X connect 18 0 17 0;
