#N canvas 1280 63 1280 1354 12;
#X obj 223 169 loadbang;
#X obj 224 242 soundfiler;
#X floatatom 224 271 5 0 0 0 - - -, f 5;
#X obj 224 299 s nsamps_l;
#N canvas 0 0 450 300 (subpatch) 0;
#X array left_deck 1.36738e+06 float 0 black #eee8d5;
#X coords 0 1 1.36737e+06 -1 200 140 1;
#X restore 224 344 graph;
#X obj 844 791 - 64;
#X floatatom 897 852 5 0 0 0 - - -, f 5;
#X obj 843 851 +;
#X obj 844 762 ctlin 6 2;
#X obj 802 166 loadbang;
#X obj 803 239 soundfiler;
#X floatatom 803 268 5 0 0 0 - - -, f 5;
#N canvas 0 0 450 300 (subpatch) 0;
#X array right_deck 1.37259e+06 float 16 black #eee8d5;
#X coords 0 1 1.37259e+06 -1 200 140 1;
#X restore 801 342 graph;
#X obj 803 296 s nsamps_r;
#X obj 844 1041 r nsamps_r;
#X obj 539 1920 dac~ 1 2;
#X obj 438 67 loadbang;
#X obj 437 134 send bela_setMidi;
#X msg 437 102 hw 0 0 0;
#X obj 783 1128 tabread4~ right_deck;
#X text 541 296 Sounds for each deck;
#X obj 660 888 phasor~;
#X obj 658 769 t b f;
#X msg 658 798 1;
#X obj 779 937 +~;
#X floatatom 807 1365 5 0 0 0 - - -, f 5;
#X obj 783 1015 /~;
#X obj 783 1044 wrap~;
#X obj 783 1073 *~;
#X obj 735 915 *~;
#X obj 729 826 r nsamps_r;
#X obj 369 795 - 64;
#X floatatom 415 855 5 0 0 0 - - -, f 5;
#X obj 367 854 +;
#X obj 228 904 phasor~;
#X obj 225 666 / 44100;
#X obj 227 769 t b f;
#X msg 227 798 1;
#X obj 228 833 /;
#X obj 324 958 +~;
#X obj 325 999 /~;
#X obj 325 1028 wrap~;
#X obj 325 1057 *~;
#X obj 227 937 *~;
#X obj 277 869 r nsamps_l;
#X obj 228 626 r nsamps_l;
#X obj 369 766 ctlin 6 1;
#X obj 386 1025 r nsamps_l;
#X obj 327 1112 tabread4~ left_deck;
#X obj 806 1335 ctlin 26 2;
#X obj 781 1272 EQ;
#X obj 329 1250 EQ;
#X obj 859 1210 ctlin 25 2;
#X obj 873 1234 ctlin 24 2;
#X obj 893 1259 ctlin 23 2;
#X obj 407 1188 ctlin 25 1;
#X obj 421 1212 ctlin 24 1;
#X obj 435 1236 ctlin 23 1;
#X obj 575 1672 ctlin 8;
#X obj 575 1701 / 127;
#X obj 337 1786 *~;
#X obj 790 1788 *~;
#X floatatom 706 1728 5 0 0 0 - - -, f 5;
#X floatatom 466 1770 5 0 0 0 - - -, f 5;
#X obj 456 1740 expr 1-$f1;
#X obj 783 1415 filter~;
#X floatatom 917 1366 5 0 0 0 - - -, f 5;
#X obj 917 1331 ctlin 22 2;
#X obj 783 1548 *~;
#X obj 838 1531 /~ 127;
#X obj 836 1500 ctlin 28 2;
#X obj 335 1565 *~;
#X obj 390 1540 /~ 127;
#X obj 390 1502 ctlin 28 1;
#X floatatom 356 1365 5 0 0 0 - - -, f 5;
#X obj 332 1415 filter~;
#X floatatom 466 1366 5 0 0 0 - - -, f 5;
#X obj 466 1331 ctlin 22 1;
#X obj 355 1335 ctlin 26 1;
#X obj 912 525 stripnote;
#X obj 913 494 notein 2;
#X obj 659 828 /;
#X obj 911 591 tgl 48 0 empty empty empty 17 7 0 10 -262144 -1 -1 0
1;
#X obj 713 608 r nsamps_r;
#X obj 713 650 / 44100;
#X floatatom 710 726 5 0 0 0 - - -, f 5;
#X obj 710 697 expr if ($f2 == 0 \, 0 \, $f1);
#X obj 856 657 t b f;
#X obj 430 527 stripnote;
#X obj 430 597 tgl 48 0 empty empty empty 17 7 0 10 -262144 -1 -1 1
1;
#X obj 225 702 expr if ($f2 == 0 \, 0 \, $f1);
#X obj 429 656 t b f;
#X obj 431 490 notein 1;
#X obj 912 558 route 0;
#X obj 430 562 route 0;
#X obj 539 1642 loadbang;
#X msg 539 1671 64;
#X obj 637 1472 loadbang;
#X msg 637 1501 127;
#X obj 368 823 * 80;
#X obj 844 820 * 80;
#X obj 108 638 / 1270;
#X floatatom 107 726 5 0 0 0 - - -, f 5;
#X obj 108 606 expr 127-$f1;
#X obj 110 577 ctlin 9 1;
#X obj 227 867 *~;
#X obj 593 686 / 1270;
#X floatatom 592 774 5 0 0 0 - - -, f 5;
#X obj 593 654 expr 127-$f1;
#X obj 595 625 ctlin 9 2;
#X obj 659 857 *~;
#X text 11 601 pitch shift;
#X text 486 717 pitch shift +- 20%, f 11;
#X obj 592 716 * 4, f 4;
#X obj 592 744 + 0.8;
#X obj 107 696 + 0.8;
#X obj 107 668 * 4;
#X text 1000 558 play/stop;
#X text 511 526 play/stop;
#X floatatom 660 537 5 0 0 0 - - -, f 5;
#X obj 605 406 ctlin 0 16;
#X obj 605 538 +;
#X obj 605 435 expr (($f1+1)%127-1)*2-1;
#X text 926 299 Load Loop;
#X text 338 301 Load Loop;
#X text 416 804 jog wheel encoder, f 10;
#X text 897 799 jog wheel encoder, f 10;
#X obj 415 888 lop~ 10;
#X obj 898 887 lop~ 10;
#X text 80 993 phasor+tabread is transport over loop. add jog wheel
as offset. when play/pause \, set phasor freq. to 0 wrap block allows
loop to start over cleanly even with offset., f 22;
#X text 118 1243 3 band equalizer;
#X text 94 1400 Resonant/oscillating ladder filter based on bob~,
f 20;
#X text 152 1565 Volume fader;
#X text 157 1748 Cross fader;
#X msg 802 205 read -resize audio/raver.wav right_deck;
#X text 901 171 Raver by Burial;
#X text 966 204 comment;
#X obj 66 788 loadbang;
#X msg 66 817 1;
#X obj 726 759 loadbang;
#X msg 726 788 1;
#X obj 1069 683 notein 2;
#X obj 1069 712 stripnote;
#X obj 1070 749 route 1;
#X msg 1070 778 0;
#X text 1147 740 reset to beginning, f 12;
#X obj 286 765 stripnote;
#X obj 287 795 route 1;
#X msg 287 823 0;
#X obj 286 736 notein 1;
#X msg 223 208 read -resize audio/seesaw.wav left_deck;
#X text 306 164 Seesaw by Jamie XX, f 23;
#X obj 662 472 loadbang;
#X msg 662 501 80;
#X text 579 371 encoder to control jog speed;
#X connect 0 0 150 0;
#X connect 1 0 2 0;
#X connect 2 0 3 0;
#X connect 5 0 100 0;
#X connect 6 0 7 1;
#X connect 6 0 128 0;
#X connect 7 0 6 0;
#X connect 8 0 5 0;
#X connect 9 0 134 0;
#X connect 10 0 11 0;
#X connect 11 0 13 0;
#X connect 14 0 26 1;
#X connect 14 0 28 1;
#X connect 16 0 18 0;
#X connect 18 0 17 0;
#X connect 19 0 50 0;
#X connect 21 0 29 0;
#X connect 22 0 23 0;
#X connect 22 1 81 1;
#X connect 23 0 81 0;
#X connect 24 0 26 0;
#X connect 25 0 65 1;
#X connect 26 0 27 0;
#X connect 27 0 28 0;
#X connect 28 0 19 0;
#X connect 29 0 24 0;
#X connect 30 0 29 1;
#X connect 31 0 99 0;
#X connect 32 0 33 1;
#X connect 32 0 127 0;
#X connect 33 0 32 0;
#X connect 34 0 43 0;
#X connect 35 0 90 0;
#X connect 36 0 37 0;
#X connect 36 1 38 1;
#X connect 37 0 38 0;
#X connect 38 0 105 0;
#X connect 39 0 40 0;
#X connect 40 0 41 0;
#X connect 41 0 42 0;
#X connect 42 0 48 0;
#X connect 43 0 39 0;
#X connect 44 0 43 1;
#X connect 45 0 35 0;
#X connect 46 0 31 0;
#X connect 47 0 40 1;
#X connect 47 0 42 1;
#X connect 48 0 51 0;
#X connect 49 0 25 0;
#X connect 50 0 65 0;
#X connect 51 0 75 0;
#X connect 52 0 50 1;
#X connect 53 0 50 2;
#X connect 54 0 50 3;
#X connect 55 0 51 1;
#X connect 56 0 51 2;
#X connect 57 0 51 3;
#X connect 58 0 59 0;
#X connect 59 0 62 0;
#X connect 59 0 61 1;
#X connect 59 0 64 0;
#X connect 60 0 15 0;
#X connect 60 0 15 1;
#X connect 61 0 15 0;
#X connect 61 0 15 1;
#X connect 64 0 63 0;
#X connect 64 0 60 1;
#X connect 65 0 68 0;
#X connect 66 0 65 2;
#X connect 67 0 66 0;
#X connect 68 0 61 0;
#X connect 69 0 68 1;
#X connect 70 0 69 0;
#X connect 71 0 60 0;
#X connect 72 0 71 1;
#X connect 73 0 72 0;
#X connect 74 0 75 1;
#X connect 75 0 71 0;
#X connect 76 0 75 2;
#X connect 77 0 76 0;
#X connect 78 0 74 0;
#X connect 79 0 93 0;
#X connect 80 0 79 0;
#X connect 80 1 79 1;
#X connect 81 0 110 0;
#X connect 82 0 87 0;
#X connect 83 0 84 0;
#X connect 84 0 86 0;
#X connect 86 0 22 0;
#X connect 86 0 85 0;
#X connect 87 0 84 0;
#X connect 87 1 86 1;
#X connect 88 0 94 0;
#X connect 89 0 91 0;
#X connect 90 0 36 0;
#X connect 91 0 35 0;
#X connect 91 1 90 1;
#X connect 92 0 88 0;
#X connect 92 1 88 1;
#X connect 93 0 82 0;
#X connect 94 0 89 0;
#X connect 95 0 96 0;
#X connect 96 0 59 0;
#X connect 97 0 98 0;
#X connect 98 0 72 0;
#X connect 98 0 69 0;
#X connect 99 0 33 0;
#X connect 100 0 7 0;
#X connect 101 0 116 0;
#X connect 102 0 105 1;
#X connect 103 0 101 0;
#X connect 104 0 103 0;
#X connect 105 0 34 0;
#X connect 106 0 113 0;
#X connect 107 0 110 1;
#X connect 108 0 106 0;
#X connect 109 0 108 0;
#X connect 110 0 21 0;
#X connect 113 0 114 0;
#X connect 114 0 107 0;
#X connect 115 0 102 0;
#X connect 116 0 115 0;
#X connect 119 0 121 1;
#X connect 119 0 99 1;
#X connect 119 0 100 1;
#X connect 120 0 122 0;
#X connect 121 0 119 0;
#X connect 122 0 121 0;
#X connect 127 0 39 1;
#X connect 128 0 24 1;
#X connect 134 0 10 0;
#X connect 137 0 138 0;
#X connect 138 0 105 1;
#X connect 139 0 140 0;
#X connect 140 0 110 1;
#X connect 141 0 142 0;
#X connect 141 1 142 1;
#X connect 142 0 143 0;
#X connect 143 0 144 0;
#X connect 144 0 6 0;
#X connect 144 0 21 1;
#X connect 146 0 147 0;
#X connect 147 0 148 0;
#X connect 148 0 34 1;
#X connect 148 0 32 0;
#X connect 149 0 146 0;
#X connect 149 1 146 1;
#X connect 150 0 1 0;
#X connect 152 0 153 0;
#X connect 153 0 119 0;
