#N canvas 1280 63 1280 1354 12;
#X obj 223 169 loadbang;
#X obj 224 242 soundfiler;
#X floatatom 224 271 5 0 0 0 - - -, f 5;
#X obj 224 299 s nsamps_l;
#N canvas 0 0 450 300 (subpatch) 0;
#X array left_deck 2.42952e+06 float 0 black #eee8d5;
#X coords 0 1 2.42952e+06 -1 200 140 1;
#X restore 224 376 graph;
#X obj 780 792 - 64;
#X floatatom 829 865 5 0 0 0 - - -, f 5;
#X obj 775 864 +;
#X obj 776 907 lop~ 1;
#X obj 778 754 ctlin 6 2;
#X text 28 795 Decks 1&2. Change final hard coded input of ctlin to
change which deck it is, f 23;
#X obj 802 166 loadbang;
#X obj 803 239 soundfiler;
#X floatatom 803 268 5 0 0 0 - - -, f 5;
#N canvas 0 0 450 300 (subpatch) 0;
#X array right_deck 529427 float 16 black #eee8d5;
#X coords 0 1 529426 -1 200 140 1;
#X restore 799 372 graph;
#X obj 803 296 s nsamps_r;
#X obj 794 1035 r nsamps_r;
#X msg 802 205 read -resize audio/interloper.wav right_deck;
#X obj 552 1647 dac~ 1 2;
#X obj 438 67 loadbang;
#X obj 437 134 send bela_setMidi;
#X msg 437 102 hw 0 0 0;
#X obj 735 1122 tabread4~ right_deck;
#X text 541 296 Sounds for each deck;
#X obj 636 876 phasor~;
#X obj 700 672 r nsamps_r;
#X obj 700 714 / 44100;
#X obj 635 779 t b f;
#X msg 635 808 1;
#X obj 636 843 /;
#X obj 734 947 +~;
#X floatatom 700 743 5 0 0 0 - - -, f 5;
#X floatatom 869 783 5 0 0 0 - - -, f 5;
#X obj 733 1009 /~;
#X obj 733 1038 wrap~;
#X obj 733 1067 *~;
#X obj 681 907 *~;
#X obj 776 833 * 64;
#X obj 684 836 r nsamps_r;
#X obj 372 782 - 64;
#X floatatom 421 855 5 0 0 0 - - -, f 5;
#X obj 367 854 +;
#X obj 368 897 lop~ 1;
#X obj 228 866 phasor~;
#X obj 292 704 / 44100;
#X obj 227 769 t b f;
#X msg 227 798 1;
#X obj 228 833 /;
#X obj 326 937 +~;
#X floatatom 292 733 5 0 0 0 - - -, f 5;
#X floatatom 461 773 5 0 0 0 - - -, f 5;
#X obj 325 999 /~;
#X obj 325 1028 wrap~;
#X obj 325 1057 *~;
#X obj 273 897 *~;
#X obj 368 823 * 64;
#X obj 276 826 r nsamps_l;
#X obj 292 662 r nsamps_l;
#X obj 370 744 ctlin 6 1;
#X obj 386 1025 r nsamps_l;
#X obj 327 1112 tabread4~ left_deck;
#X msg 223 208 read -resize audio/cephei.wav left_deck;
#X obj 868 753 ctlin 26 2;
#X obj 460 743 ctlin 26 1;
#X obj 733 1208 *~;
#X obj 330 1206 *~;
#X obj 788 1191 /~ 127;
#X obj 385 1181 /~ 127;
#X obj 786 1160 ctlin 28 2;
#X obj 385 1143 ctlin 28 1;
#X obj 734 1311 EQ;
#X obj 331 1323 EQ;
#X obj 812 1249 ctlin 25 2;
#X obj 826 1273 ctlin 24 2;
#X obj 846 1298 ctlin 23 2;
#X obj 409 1261 ctlin 25 1;
#X obj 423 1285 ctlin 24 1;
#X obj 437 1309 ctlin 23 1;
#X obj 553 1361 ctlin 8;
#X obj 553 1390 / 127;
#X obj 404 1530 *~;
#X obj 723 1544 *~;
#X floatatom 720 1424 5 0 0 0 - - -, f 5;
#X floatatom 444 1459 5 0 0 0 - - -, f 5;
#X obj 434 1429 expr 1-$f1;
#X obj 615 682 bng 47 250 50 0 empty empty empty 17 7 0 10 -262144
-1 -1;
#X obj 180 688 bng 47 250 50 0 empty empty empty 17 7 0 10 -262144
-1 -1;
#X obj 180 659 notein 1;
#X obj 615 653 notein 2;
#X obj 1152 1096 ctlin;
#X floatatom 1152 1125 5 0 0 0 - - -, f 5;
#X obj 149 1198 line~;
#X connect 0 0 61 0;
#X connect 1 0 2 0;
#X connect 2 0 3 0;
#X connect 5 0 37 0;
#X connect 6 0 7 1;
#X connect 6 0 8 0;
#X connect 7 0 6 0;
#X connect 8 0 30 1;
#X connect 9 0 5 0;
#X connect 11 0 17 0;
#X connect 12 0 13 0;
#X connect 13 0 15 0;
#X connect 16 0 33 1;
#X connect 16 0 35 1;
#X connect 17 0 12 0;
#X connect 19 0 21 0;
#X connect 21 0 20 0;
#X connect 22 0 64 0;
#X connect 24 0 36 0;
#X connect 25 0 26 0;
#X connect 26 0 27 0;
#X connect 26 0 31 0;
#X connect 27 0 28 0;
#X connect 27 1 29 1;
#X connect 28 0 29 0;
#X connect 29 0 24 0;
#X connect 30 0 33 0;
#X connect 32 0 37 1;
#X connect 33 0 34 0;
#X connect 34 0 35 0;
#X connect 35 0 22 0;
#X connect 36 0 30 0;
#X connect 37 0 7 0;
#X connect 38 0 36 1;
#X connect 39 0 55 0;
#X connect 40 0 41 1;
#X connect 40 0 42 0;
#X connect 41 0 40 0;
#X connect 42 0 48 1;
#X connect 43 0 54 0;
#X connect 44 0 45 0;
#X connect 44 0 49 0;
#X connect 45 0 46 0;
#X connect 45 1 47 1;
#X connect 46 0 47 0;
#X connect 47 0 43 0;
#X connect 48 0 51 0;
#X connect 50 0 55 1;
#X connect 51 0 52 0;
#X connect 52 0 53 0;
#X connect 53 0 60 0;
#X connect 54 0 48 0;
#X connect 55 0 41 0;
#X connect 56 0 54 1;
#X connect 57 0 44 0;
#X connect 58 0 39 0;
#X connect 59 0 51 1;
#X connect 59 0 53 1;
#X connect 60 0 65 0;
#X connect 61 0 1 0;
#X connect 62 0 32 0;
#X connect 63 0 50 0;
#X connect 64 0 70 0;
#X connect 65 0 71 0;
#X connect 66 0 64 1;
#X connect 67 0 65 1;
#X connect 68 0 66 0;
#X connect 69 0 67 0;
#X connect 70 0 81 0;
#X connect 71 0 80 0;
#X connect 72 0 70 1;
#X connect 73 0 70 2;
#X connect 74 0 70 3;
#X connect 75 0 71 1;
#X connect 76 0 71 2;
#X connect 77 0 71 3;
#X connect 78 0 79 0;
#X connect 79 0 82 0;
#X connect 79 0 81 1;
#X connect 79 0 84 0;
#X connect 80 0 18 0;
#X connect 80 0 18 1;
#X connect 81 0 18 0;
#X connect 81 0 18 1;
#X connect 84 0 83 0;
#X connect 84 0 80 1;
#X connect 85 0 24 0;
#X connect 86 0 43 0;
#X connect 87 0 86 0;
#X connect 88 0 85 0;
#X connect 89 0 90 0;
