#N canvas 0 63 1280 1354 10;
#X text 188 304 Gain;
#X obj 166 266 vsl 15 100 0 1 0 0 empty empty empty 0 -9 0 10 -262144
-1 -1 9900 1;
#X obj 36 360 *~;
#X floatatom 171 413 14 0 0 0 - - -, f 14;
#X obj 179 513 +~;
#X text 578 306 Gain;
#X obj 553 259 vsl 15 100 0 1 0 1 empty empty empty 0 -9 0 10 -262144
-1 -1 9900 1;
#X obj 426 362 *~;
#X floatatom 552 406 6 0 0 0 - - -, f 6;
#X text 995 300 Gain;
#X obj 973 253 vsl 15 100 0 1 0 0 empty empty empty 0 -9 0 10 -262144
-1 -1 9900 1;
#X obj 843 356 *~;
#X floatatom 973 397 5 0 0 0 - - -, f 5;
#X obj 40 47 inlet~;
#X obj 179 538 outlet~;
#X obj 161 119 inlet;
#X obj 165 213 log10;
#X floatatom 116 237 5 0 0 0 - - -, f 5;
#X obj 165 186 / 12.7;
#X obj 553 136 inlet;
#X obj 553 213 log10;
#X floatatom 504 237 5 0 0 0 - - -, f 5;
#X obj 553 187 / 12.7;
#X obj 968 90 inlet;
#X obj 969 166 log10;
#X floatatom 920 190 5 0 0 0 - - -, f 5;
#X obj 969 141 / 12.7;
#X obj 171 386 max 0;
#X obj 553 373 max 0;
#X obj 973 366 max 0;
#X obj 425 325 -~;
#X obj 440 283 +~;
#X obj 164 159 * 2;
#X obj 553 161 * 2;
#X obj 968 115 * 2;
#X obj 519 30 loadbang;
#X msg 519 55 64;
#X obj 843 294 hip~ 3000;
#X obj 37 273 lop~ 300;
#X connect 1 0 27 0;
#X connect 2 0 4 0;
#X connect 4 0 14 0;
#X connect 6 0 28 0;
#X connect 7 0 4 1;
#X connect 10 0 29 0;
#X connect 11 0 4 1;
#X connect 13 0 30 0;
#X connect 13 0 37 0;
#X connect 13 0 38 0;
#X connect 15 0 32 0;
#X connect 16 0 1 0;
#X connect 16 0 17 0;
#X connect 18 0 16 0;
#X connect 19 0 33 0;
#X connect 20 0 21 0;
#X connect 20 0 6 0;
#X connect 22 0 20 0;
#X connect 23 0 34 0;
#X connect 24 0 25 0;
#X connect 24 0 10 0;
#X connect 26 0 24 0;
#X connect 27 0 3 0;
#X connect 27 0 2 1;
#X connect 28 0 8 0;
#X connect 28 0 7 1;
#X connect 29 0 12 0;
#X connect 29 0 11 1;
#X connect 30 0 7 0;
#X connect 31 0 30 1;
#X connect 32 0 18 0;
#X connect 33 0 22 0;
#X connect 34 0 26 0;
#X connect 35 0 36 0;
#X connect 36 0 32 0;
#X connect 36 0 33 0;
#X connect 36 0 34 0;
#X connect 37 0 11 0;
#X connect 37 0 31 1;
#X connect 38 0 2 0;
#X connect 38 0 31 0;
