#N canvas 1280 63 1280 1354 12;
#X obj 479 808 bob~;
#X obj 480 848 outlet~;
#X obj 473 555 loadbang;
#X obj 411 556 inlet;
#X text 435 511 resonant freq;
#X obj 701 552 loadbang;
#X floatatom 701 610 5 0 0 0 - - -, f 5;
#X obj 637 551 inlet;
#X obj 701 676 / 127;
#X text 668 514 resonance;
#X text 242 512 Audio in;
#X obj 246 549 inlet~;
#X obj 472 655 / 127;
#X obj 471 718 lop~ 100;
#X obj 697 717 lop~ 100;
#X obj 701 638 * 3;
#X obj 469 625 * 10000;
#X obj 472 686 + 100;
#X msg 473 584 64;
#X msg 701 581 0;
#X connect 0 0 1 0;
#X connect 2 0 18 0;
#X connect 3 0 16 0;
#X connect 5 0 19 0;
#X connect 6 0 15 0;
#X connect 7 0 6 0;
#X connect 8 0 14 0;
#X connect 11 0 0 0;
#X connect 12 0 17 0;
#X connect 13 0 0 1;
#X connect 14 0 0 2;
#X connect 15 0 8 0;
#X connect 16 0 12 0;
#X connect 17 0 13 0;
#X connect 18 0 16 0;
#X connect 19 0 6 0;
