#N canvas 1280 63 1280 1354 12;
#X obj 479 808 bob~;
#X obj 480 848 outlet~;
#X obj 473 555 loadbang;
#X obj 471 635 mtof;
#X msg 473 584 60;
#X obj 411 556 inlet;
#X text 435 511 resonant freq;
#X obj 701 552 loadbang;
#X msg 701 581 10;
#X floatatom 701 610 5 0 0 0 - - -, f 5;
#X obj 700 722 line~;
#X obj 637 551 inlet;
#X obj 701 638 * 8;
#X obj 701 676 / 127;
#X text 668 514 resonance;
#X text 242 512 Audio in;
#X obj 246 549 inlet~;
#X connect 0 0 1 0;
#X connect 2 0 4 0;
#X connect 3 0 0 1;
#X connect 4 0 3 0;
#X connect 5 0 3 0;
#X connect 7 0 8 0;
#X connect 8 0 9 0;
#X connect 9 0 12 0;
#X connect 10 0 0 2;
#X connect 11 0 9 0;
#X connect 12 0 13 0;
#X connect 13 0 10 0;
#X connect 16 0 0 0;
