#N canvas 1055 672 450 300 12;
#X obj 144 117 log;
#X obj 144 142 /;
#X floatatom 144 167 5 0 0 0 - - -, f 5;
#X msg 185 81 10;
#X obj 183 119 log;
#X obj 105 49 inlet, f 7;
#X obj 144 195 outlet;
#X obj 185 44 loadbang;
#X connect 0 0 1 0;
#X connect 1 0 2 0;
#X connect 2 0 6 0;
#X connect 3 0 4 0;
#X connect 4 0 1 1;
#X connect 5 0 0 0;
#X connect 7 0 3 0;
