#N canvas 768 197 699 548 10;
#X obj 4 62 soundfiler;
#N canvas 0 22 450 278 (subpatch) 0;
#X array sound0 771567 float 2;
#X coords 0 1 771567 -1 200 140 1;
#X restore 2 99 graph;
#X obj 247 109 tabplay~ sound0;
#X obj 4 11 loadbang;
#X msg 4 36 read -resize drone7.WAV sound0;
#X msg 247 79 1;
#X obj 377 111 bng 15 250 50 0 empty empty empty 17 7 0 10 -262144
-1 -1;
#X obj 453 132 osc~;
#X obj 453 107 *~ 100;
#X obj 453 157 expr~ ($v1+1)/2;
#X obj 356 247 *~;
#X obj 453 77 adc~ 3;
#X obj 353 291 dac~ 1 2 3;
#X connect 0 0 5 0;
#X connect 2 0 10 0;
#X connect 2 1 6 0;
#X connect 3 0 4 0;
#X connect 4 0 0 0;
#X connect 5 0 2 0;
#X connect 6 0 5 0;
#X connect 7 0 9 0;
#X connect 8 0 7 0;
#X connect 9 0 10 1;
#X connect 9 0 12 2;
#X connect 10 0 12 1;
#X connect 10 0 12 0;
#X connect 11 0 8 0;
