#N canvas 960 63 960 994 10;
#X obj 26 116 s bela_setDigital @hv_param;
#X obj 26 63 loadbang;
#X obj 249 81 adc~ 1 2;
#X text 249 58 audio in;
#X text 24 38 set digital pin as output;
#X obj 357 235 abs~;
#X obj 430 263 adc~ 3;
#X obj 357 261 lop~ 400;
#X obj 357 286 max~;
#X obj 429 307 dac~ 29;
#X obj 357 314 -~;
#X obj 357 335 *~ 100;
#X obj 357 356 clip~ 0 1;
#X text 382 115 mono mix-down;
#X text 403 155 rectified;
#X text 426 181 envelope;
#X obj 295 400 dac~ 1 2 12 13 14;
#X obj 509 230 abs~;
#X obj 509 255 lop~ 400;
#X obj 509 280 max~;
#X obj 509 305 -~;
#X obj 509 330 *~ 100;
#X obj 509 355 clip~ 0 1;
#X msg 26 85 out 12 ~ \, out 13 ~ \, out 14 ~;
#X connect 1 0 23 0;
#X connect 2 0 16 0;
#X connect 2 0 5 0;
#X connect 2 1 16 1;
#X connect 2 1 17 0;
#X connect 5 0 7 0;
#X connect 6 0 8 1;
#X connect 6 0 9 0;
#X connect 6 0 10 1;
#X connect 6 0 19 1;
#X connect 6 0 20 1;
#X connect 7 0 8 0;
#X connect 8 0 10 0;
#X connect 10 0 11 0;
#X connect 11 0 12 0;
#X connect 12 0 16 2;
#X connect 17 0 18 0;
#X connect 18 0 19 0;
#X connect 19 0 20 0;
#X connect 20 0 21 0;
#X connect 21 0 22 0;
#X connect 22 0 16 3;
#X connect 23 0 0 0;
