#N canvas 488 120 450 300 10;
#N canvas 0 22 450 300 oscbank300 0;
#X obj 0 0 osc~ 666;
#X obj 60 0 osc~ 666;
#X obj 120 0 osc~ 666;
#X obj 180 0 osc~ 666;
#X obj 240 0 osc~ 666;
#X obj 300 0 osc~ 666;
#X obj 360 0 osc~ 666;
#X obj 420 0 osc~ 666;
#X obj 480 0 osc~ 666;
#X obj 540 0 osc~ 666;
#X obj 600 0 osc~ 666;
#X obj 660 0 osc~ 666;
#X obj 720 0 osc~ 666;
#X obj 780 0 osc~ 666;
#X obj 840 0 osc~ 666;
#X obj 900 0 osc~ 666;
#X obj 960 0 osc~ 666;
#X obj 1020 0 osc~ 666;
#X obj 1080 0 osc~ 666;
#X obj 1140 0 osc~ 666;
#X obj 1200 0 osc~ 666;
#X obj 1260 0 osc~ 666;
#X obj 1320 0 osc~ 666;
#X obj 1380 0 osc~ 666;
#X obj 1440 0 osc~ 666;
#X obj 1500 0 osc~ 666;
#X obj 1560 0 osc~ 666;
#X obj 1620 0 osc~ 666;
#X obj 1680 0 osc~ 666;
#X obj 1740 0 osc~ 666;
#X obj 1800 0 osc~ 666;
#X obj 1860 0 osc~ 666;
#X obj 1920 0 osc~ 666;
#X obj 1980 0 osc~ 666;
#X obj 2040 0 osc~ 666;
#X obj 2100 0 osc~ 666;
#X obj 2160 0 osc~ 666;
#X obj 2220 0 osc~ 666;
#X obj 2280 0 osc~ 666;
#X obj 2340 0 osc~ 666;
#X obj 2400 0 osc~ 666;
#X obj 2460 0 osc~ 666;
#X obj 2520 0 osc~ 666;
#X obj 2580 0 osc~ 666;
#X obj 2640 0 osc~ 666;
#X obj 2700 0 osc~ 666;
#X obj 2760 0 osc~ 666;
#X obj 2820 0 osc~ 666;
#X obj 2880 0 osc~ 666;
#X obj 2940 0 osc~ 666;
#X obj 3000 0 osc~ 666;
#X obj 3060 0 osc~ 666;
#X obj 3120 0 osc~ 666;
#X obj 3180 0 osc~ 666;
#X obj 3240 0 osc~ 666;
#X obj 3300 0 osc~ 666;
#X obj 3360 0 osc~ 666;
#X obj 3420 0 osc~ 666;
#X obj 3480 0 osc~ 666;
#X obj 3540 0 osc~ 666;
#X obj 3600 0 osc~ 666;
#X obj 3660 0 osc~ 666;
#X obj 3720 0 osc~ 666;
#X obj 3780 0 osc~ 666;
#X obj 3840 0 osc~ 666;
#X obj 3900 0 osc~ 666;
#X obj 3960 0 osc~ 666;
#X obj 4020 0 osc~ 666;
#X obj 4080 0 osc~ 666;
#X obj 4140 0 osc~ 666;
#X obj 4200 0 osc~ 666;
#X obj 4260 0 osc~ 666;
#X obj 4320 0 osc~ 666;
#X obj 4380 0 osc~ 666;
#X obj 4440 0 osc~ 666;
#X obj 4500 0 osc~ 666;
#X obj 4560 0 osc~ 666;
#X obj 4620 0 osc~ 666;
#X obj 4680 0 osc~ 666;
#X obj 4740 0 osc~ 666;
#X obj 4800 0 osc~ 666;
#X obj 4860 0 osc~ 666;
#X obj 4920 0 osc~ 666;
#X obj 4980 0 osc~ 666;
#X obj 5040 0 osc~ 666;
#X obj 5100 0 osc~ 666;
#X obj 5160 0 osc~ 666;
#X obj 5220 0 osc~ 666;
#X obj 5280 0 osc~ 666;
#X obj 5340 0 osc~ 666;
#X obj 5400 0 osc~ 666;
#X obj 5460 0 osc~ 666;
#X obj 5520 0 osc~ 666;
#X obj 5580 0 osc~ 666;
#X obj 5640 0 osc~ 666;
#X obj 5700 0 osc~ 666;
#X obj 5760 0 osc~ 666;
#X obj 5820 0 osc~ 666;
#X obj 5880 0 osc~ 666;
#X obj 5940 0 osc~ 666;
#X obj 6000 0 osc~ 666;
#X obj 6060 0 osc~ 666;
#X obj 6120 0 osc~ 666;
#X obj 6180 0 osc~ 666;
#X obj 6240 0 osc~ 666;
#X obj 6300 0 osc~ 666;
#X obj 6360 0 osc~ 666;
#X obj 6420 0 osc~ 666;
#X obj 6480 0 osc~ 666;
#X obj 6540 0 osc~ 666;
#X obj 6600 0 osc~ 666;
#X obj 6660 0 osc~ 666;
#X obj 6720 0 osc~ 666;
#X obj 6780 0 osc~ 666;
#X obj 6840 0 osc~ 666;
#X obj 6900 0 osc~ 666;
#X obj 6960 0 osc~ 666;
#X obj 7020 0 osc~ 666;
#X obj 7080 0 osc~ 666;
#X obj 7140 0 osc~ 666;
#X obj 7200 0 osc~ 666;
#X obj 7260 0 osc~ 666;
#X obj 7320 0 osc~ 666;
#X obj 7380 0 osc~ 666;
#X obj 7440 0 osc~ 666;
#X obj 7500 0 osc~ 666;
#X obj 7560 0 osc~ 666;
#X obj 7620 0 osc~ 666;
#X obj 7680 0 osc~ 666;
#X obj 7740 0 osc~ 666;
#X obj 7800 0 osc~ 666;
#X obj 7860 0 osc~ 666;
#X obj 7920 0 osc~ 666;
#X obj 7980 0 osc~ 666;
#X obj 8040 0 osc~ 666;
#X obj 8100 0 osc~ 666;
#X obj 8160 0 osc~ 666;
#X obj 8220 0 osc~ 666;
#X obj 8280 0 osc~ 666;
#X obj 8340 0 osc~ 666;
#X obj 8400 0 osc~ 666;
#X obj 8460 0 osc~ 666;
#X obj 8520 0 osc~ 666;
#X obj 8580 0 osc~ 666;
#X obj 8640 0 osc~ 666;
#X obj 8700 0 osc~ 666;
#X obj 8760 0 osc~ 666;
#X obj 8820 0 osc~ 666;
#X obj 8880 0 osc~ 666;
#X obj 8940 0 osc~ 666;
#X obj 9000 0 osc~ 666;
#X obj 9060 0 osc~ 666;
#X obj 9120 0 osc~ 666;
#X obj 9180 0 osc~ 666;
#X obj 9240 0 osc~ 666;
#X obj 9300 0 osc~ 666;
#X obj 9360 0 osc~ 666;
#X obj 9420 0 osc~ 666;
#X obj 9480 0 osc~ 666;
#X obj 9540 0 osc~ 666;
#X obj 9600 0 osc~ 666;
#X obj 9660 0 osc~ 666;
#X obj 9720 0 osc~ 666;
#X obj 9780 0 osc~ 666;
#X obj 9840 0 osc~ 666;
#X obj 9900 0 osc~ 666;
#X obj 9960 0 osc~ 666;
#X obj 10020 0 osc~ 666;
#X obj 10080 0 osc~ 666;
#X obj 10140 0 osc~ 666;
#X obj 10200 0 osc~ 666;
#X obj 10260 0 osc~ 666;
#X obj 10320 0 osc~ 666;
#X obj 10380 0 osc~ 666;
#X obj 10440 0 osc~ 666;
#X obj 10500 0 osc~ 666;
#X obj 10560 0 osc~ 666;
#X obj 10620 0 osc~ 666;
#X obj 10680 0 osc~ 666;
#X obj 10740 0 osc~ 666;
#X obj 10800 0 osc~ 666;
#X obj 10860 0 osc~ 666;
#X obj 10920 0 osc~ 666;
#X obj 10980 0 osc~ 666;
#X obj 11040 0 osc~ 666;
#X obj 11100 0 osc~ 666;
#X obj 11160 0 osc~ 666;
#X obj 11220 0 osc~ 666;
#X obj 11280 0 osc~ 666;
#X obj 11340 0 osc~ 666;
#X obj 11400 0 osc~ 666;
#X obj 11460 0 osc~ 666;
#X obj 11520 0 osc~ 666;
#X obj 11580 0 osc~ 666;
#X obj 11640 0 osc~ 666;
#X obj 11700 0 osc~ 666;
#X obj 11760 0 osc~ 666;
#X obj 11820 0 osc~ 666;
#X obj 11880 0 osc~ 666;
#X obj 11940 0 osc~ 666;
#X obj 12000 0 osc~ 666;
#X obj 12060 0 osc~ 666;
#X obj 12120 0 osc~ 666;
#X obj 12180 0 osc~ 666;
#X obj 12240 0 osc~ 666;
#X obj 12300 0 osc~ 666;
#X obj 12360 0 osc~ 666;
#X obj 12420 0 osc~ 666;
#X obj 12480 0 osc~ 666;
#X obj 12540 0 osc~ 666;
#X obj 12600 0 osc~ 666;
#X obj 12660 0 osc~ 666;
#X obj 12720 0 osc~ 666;
#X obj 12780 0 osc~ 666;
#X obj 12840 0 osc~ 666;
#X obj 12900 0 osc~ 666;
#X obj 12960 0 osc~ 666;
#X obj 13020 0 osc~ 666;
#X obj 13080 0 osc~ 666;
#X obj 13140 0 osc~ 666;
#X obj 13200 0 osc~ 666;
#X obj 13260 0 osc~ 666;
#X obj 13320 0 osc~ 666;
#X obj 13380 0 osc~ 666;
#X obj 13440 0 osc~ 666;
#X obj 13500 0 osc~ 666;
#X obj 13560 0 osc~ 666;
#X obj 13620 0 osc~ 666;
#X obj 13680 0 osc~ 666;
#X obj 13740 0 osc~ 666;
#X obj 13800 0 osc~ 666;
#X obj 13860 0 osc~ 666;
#X obj 13920 0 osc~ 666;
#X obj 13980 0 osc~ 666;
#X obj 14040 0 osc~ 666;
#X obj 14100 0 osc~ 666;
#X obj 14160 0 osc~ 666;
#X obj 14220 0 osc~ 666;
#X obj 14280 0 osc~ 666;
#X obj 14340 0 osc~ 666;
#X obj 14400 0 osc~ 666;
#X obj 14460 0 osc~ 666;
#X obj 14520 0 osc~ 666;
#X obj 14580 0 osc~ 666;
#X obj 14640 0 osc~ 666;
#X obj 14700 0 osc~ 666;
#X obj 14760 0 osc~ 666;
#X obj 14820 0 osc~ 666;
#X obj 14880 0 osc~ 666;
#X obj 14940 0 osc~ 666;
#X obj 15000 0 osc~ 666;
#X obj 15060 0 osc~ 666;
#X obj 15120 0 osc~ 666;
#X obj 15180 0 osc~ 666;
#X obj 15240 0 osc~ 666;
#X obj 15300 0 osc~ 666;
#X obj 15360 0 osc~ 666;
#X obj 15420 0 osc~ 666;
#X obj 15480 0 osc~ 666;
#X obj 15540 0 osc~ 666;
#X obj 15600 0 osc~ 666;
#X obj 15660 0 osc~ 666;
#X obj 15720 0 osc~ 666;
#X obj 15780 0 osc~ 666;
#X obj 15840 0 osc~ 666;
#X obj 15900 0 osc~ 666;
#X obj 15960 0 osc~ 666;
#X obj 16020 0 osc~ 666;
#X obj 16080 0 osc~ 666;
#X obj 16140 0 osc~ 666;
#X obj 16200 0 osc~ 666;
#X obj 16260 0 osc~ 666;
#X obj 16320 0 osc~ 666;
#X obj 16380 0 osc~ 666;
#X obj 16440 0 osc~ 666;
#X obj 16500 0 osc~ 666;
#X obj 16560 0 osc~ 666;
#X obj 16620 0 osc~ 666;
#X obj 16680 0 osc~ 666;
#X obj 16740 0 osc~ 666;
#X obj 16800 0 osc~ 666;
#X obj 16860 0 osc~ 666;
#X obj 16920 0 osc~ 666;
#X obj 16980 0 osc~ 666;
#X obj 17040 0 osc~ 666;
#X obj 17100 0 osc~ 666;
#X obj 17160 0 osc~ 666;
#X obj 17220 0 osc~ 666;
#X obj 17280 0 osc~ 666;
#X obj 17340 0 osc~ 666;
#X obj 17400 0 osc~ 666;
#X obj 17460 0 osc~ 666;
#X obj 17520 0 osc~ 666;
#X obj 17580 0 osc~ 666;
#X obj 17640 0 osc~ 666;
#X obj 17700 0 osc~ 666;
#X obj 17760 0 osc~ 666;
#X obj 17820 0 osc~ 666;
#X obj 17880 0 osc~ 666;
#X obj 17940 0 osc~ 666;
#X obj 0 100 *~ 0.003333;
#X obj 0 130 dac~ 1 2;
#X connect 0 0 300 0;
#X connect 1 0 300 0;
#X connect 2 0 300 0;
#X connect 3 0 300 0;
#X connect 4 0 300 0;
#X connect 5 0 300 0;
#X connect 6 0 300 0;
#X connect 7 0 300 0;
#X connect 8 0 300 0;
#X connect 9 0 300 0;
#X connect 10 0 300 0;
#X connect 11 0 300 0;
#X connect 12 0 300 0;
#X connect 13 0 300 0;
#X connect 14 0 300 0;
#X connect 15 0 300 0;
#X connect 16 0 300 0;
#X connect 17 0 300 0;
#X connect 18 0 300 0;
#X connect 19 0 300 0;
#X connect 20 0 300 0;
#X connect 21 0 300 0;
#X connect 22 0 300 0;
#X connect 23 0 300 0;
#X connect 24 0 300 0;
#X connect 25 0 300 0;
#X connect 26 0 300 0;
#X connect 27 0 300 0;
#X connect 28 0 300 0;
#X connect 29 0 300 0;
#X connect 30 0 300 0;
#X connect 31 0 300 0;
#X connect 32 0 300 0;
#X connect 33 0 300 0;
#X connect 34 0 300 0;
#X connect 35 0 300 0;
#X connect 36 0 300 0;
#X connect 37 0 300 0;
#X connect 38 0 300 0;
#X connect 39 0 300 0;
#X connect 40 0 300 0;
#X connect 41 0 300 0;
#X connect 42 0 300 0;
#X connect 43 0 300 0;
#X connect 44 0 300 0;
#X connect 45 0 300 0;
#X connect 46 0 300 0;
#X connect 47 0 300 0;
#X connect 48 0 300 0;
#X connect 49 0 300 0;
#X connect 50 0 300 0;
#X connect 51 0 300 0;
#X connect 52 0 300 0;
#X connect 53 0 300 0;
#X connect 54 0 300 0;
#X connect 55 0 300 0;
#X connect 56 0 300 0;
#X connect 57 0 300 0;
#X connect 58 0 300 0;
#X connect 59 0 300 0;
#X connect 60 0 300 0;
#X connect 61 0 300 0;
#X connect 62 0 300 0;
#X connect 63 0 300 0;
#X connect 64 0 300 0;
#X connect 65 0 300 0;
#X connect 66 0 300 0;
#X connect 67 0 300 0;
#X connect 68 0 300 0;
#X connect 69 0 300 0;
#X connect 70 0 300 0;
#X connect 71 0 300 0;
#X connect 72 0 300 0;
#X connect 73 0 300 0;
#X connect 74 0 300 0;
#X connect 75 0 300 0;
#X connect 76 0 300 0;
#X connect 77 0 300 0;
#X connect 78 0 300 0;
#X connect 79 0 300 0;
#X connect 80 0 300 0;
#X connect 81 0 300 0;
#X connect 82 0 300 0;
#X connect 83 0 300 0;
#X connect 84 0 300 0;
#X connect 85 0 300 0;
#X connect 86 0 300 0;
#X connect 87 0 300 0;
#X connect 88 0 300 0;
#X connect 89 0 300 0;
#X connect 90 0 300 0;
#X connect 91 0 300 0;
#X connect 92 0 300 0;
#X connect 93 0 300 0;
#X connect 94 0 300 0;
#X connect 95 0 300 0;
#X connect 96 0 300 0;
#X connect 97 0 300 0;
#X connect 98 0 300 0;
#X connect 99 0 300 0;
#X connect 100 0 300 0;
#X connect 101 0 300 0;
#X connect 102 0 300 0;
#X connect 103 0 300 0;
#X connect 104 0 300 0;
#X connect 105 0 300 0;
#X connect 106 0 300 0;
#X connect 107 0 300 0;
#X connect 108 0 300 0;
#X connect 109 0 300 0;
#X connect 110 0 300 0;
#X connect 111 0 300 0;
#X connect 112 0 300 0;
#X connect 113 0 300 0;
#X connect 114 0 300 0;
#X connect 115 0 300 0;
#X connect 116 0 300 0;
#X connect 117 0 300 0;
#X connect 118 0 300 0;
#X connect 119 0 300 0;
#X connect 120 0 300 0;
#X connect 121 0 300 0;
#X connect 122 0 300 0;
#X connect 123 0 300 0;
#X connect 124 0 300 0;
#X connect 125 0 300 0;
#X connect 126 0 300 0;
#X connect 127 0 300 0;
#X connect 128 0 300 0;
#X connect 129 0 300 0;
#X connect 130 0 300 0;
#X connect 131 0 300 0;
#X connect 132 0 300 0;
#X connect 133 0 300 0;
#X connect 134 0 300 0;
#X connect 135 0 300 0;
#X connect 136 0 300 0;
#X connect 137 0 300 0;
#X connect 138 0 300 0;
#X connect 139 0 300 0;
#X connect 140 0 300 0;
#X connect 141 0 300 0;
#X connect 142 0 300 0;
#X connect 143 0 300 0;
#X connect 144 0 300 0;
#X connect 145 0 300 0;
#X connect 146 0 300 0;
#X connect 147 0 300 0;
#X connect 148 0 300 0;
#X connect 149 0 300 0;
#X connect 150 0 300 0;
#X connect 151 0 300 0;
#X connect 152 0 300 0;
#X connect 153 0 300 0;
#X connect 154 0 300 0;
#X connect 155 0 300 0;
#X connect 156 0 300 0;
#X connect 157 0 300 0;
#X connect 158 0 300 0;
#X connect 159 0 300 0;
#X connect 160 0 300 0;
#X connect 161 0 300 0;
#X connect 162 0 300 0;
#X connect 163 0 300 0;
#X connect 164 0 300 0;
#X connect 165 0 300 0;
#X connect 166 0 300 0;
#X connect 167 0 300 0;
#X connect 168 0 300 0;
#X connect 169 0 300 0;
#X connect 170 0 300 0;
#X connect 171 0 300 0;
#X connect 172 0 300 0;
#X connect 173 0 300 0;
#X connect 174 0 300 0;
#X connect 175 0 300 0;
#X connect 176 0 300 0;
#X connect 177 0 300 0;
#X connect 178 0 300 0;
#X connect 179 0 300 0;
#X connect 180 0 300 0;
#X connect 181 0 300 0;
#X connect 182 0 300 0;
#X connect 183 0 300 0;
#X connect 184 0 300 0;
#X connect 185 0 300 0;
#X connect 186 0 300 0;
#X connect 187 0 300 0;
#X connect 188 0 300 0;
#X connect 189 0 300 0;
#X connect 190 0 300 0;
#X connect 191 0 300 0;
#X connect 192 0 300 0;
#X connect 193 0 300 0;
#X connect 194 0 300 0;
#X connect 195 0 300 0;
#X connect 196 0 300 0;
#X connect 197 0 300 0;
#X connect 198 0 300 0;
#X connect 199 0 300 0;
#X connect 200 0 300 0;
#X connect 201 0 300 0;
#X connect 202 0 300 0;
#X connect 203 0 300 0;
#X connect 204 0 300 0;
#X connect 205 0 300 0;
#X connect 206 0 300 0;
#X connect 207 0 300 0;
#X connect 208 0 300 0;
#X connect 209 0 300 0;
#X connect 210 0 300 0;
#X connect 211 0 300 0;
#X connect 212 0 300 0;
#X connect 213 0 300 0;
#X connect 214 0 300 0;
#X connect 215 0 300 0;
#X connect 216 0 300 0;
#X connect 217 0 300 0;
#X connect 218 0 300 0;
#X connect 219 0 300 0;
#X connect 220 0 300 0;
#X connect 221 0 300 0;
#X connect 222 0 300 0;
#X connect 223 0 300 0;
#X connect 224 0 300 0;
#X connect 225 0 300 0;
#X connect 226 0 300 0;
#X connect 227 0 300 0;
#X connect 228 0 300 0;
#X connect 229 0 300 0;
#X connect 230 0 300 0;
#X connect 231 0 300 0;
#X connect 232 0 300 0;
#X connect 233 0 300 0;
#X connect 234 0 300 0;
#X connect 235 0 300 0;
#X connect 236 0 300 0;
#X connect 237 0 300 0;
#X connect 238 0 300 0;
#X connect 239 0 300 0;
#X connect 240 0 300 0;
#X connect 241 0 300 0;
#X connect 242 0 300 0;
#X connect 243 0 300 0;
#X connect 244 0 300 0;
#X connect 245 0 300 0;
#X connect 246 0 300 0;
#X connect 247 0 300 0;
#X connect 248 0 300 0;
#X connect 249 0 300 0;
#X connect 250 0 300 0;
#X connect 251 0 300 0;
#X connect 252 0 300 0;
#X connect 253 0 300 0;
#X connect 254 0 300 0;
#X connect 255 0 300 0;
#X connect 256 0 300 0;
#X connect 257 0 300 0;
#X connect 258 0 300 0;
#X connect 259 0 300 0;
#X connect 260 0 300 0;
#X connect 261 0 300 0;
#X connect 262 0 300 0;
#X connect 263 0 300 0;
#X connect 264 0 300 0;
#X connect 265 0 300 0;
#X connect 266 0 300 0;
#X connect 267 0 300 0;
#X connect 268 0 300 0;
#X connect 269 0 300 0;
#X connect 270 0 300 0;
#X connect 271 0 300 0;
#X connect 272 0 300 0;
#X connect 273 0 300 0;
#X connect 274 0 300 0;
#X connect 275 0 300 0;
#X connect 276 0 300 0;
#X connect 277 0 300 0;
#X connect 278 0 300 0;
#X connect 279 0 300 0;
#X connect 280 0 300 0;
#X connect 281 0 300 0;
#X connect 282 0 300 0;
#X connect 283 0 300 0;
#X connect 284 0 300 0;
#X connect 285 0 300 0;
#X connect 286 0 300 0;
#X connect 287 0 300 0;
#X connect 288 0 300 0;
#X connect 289 0 300 0;
#X connect 290 0 300 0;
#X connect 291 0 300 0;
#X connect 292 0 300 0;
#X connect 293 0 300 0;
#X connect 294 0 300 0;
#X connect 295 0 300 0;
#X connect 296 0 300 0;
#X connect 297 0 300 0;
#X connect 298 0 300 0;
#X connect 299 0 300 0;
#X connect 300 0 301 0;
#X connect 300 0 301 1;
#X restore 107 96 pd oscbank300 ;
