#N canvas 488 120 450 300 10;
#N canvas 0 22 450 300 oscbank1000 0;
#X obj 0 0 osc~ 666;
#X obj 60 0 osc~ 666;
#X obj 120 0 osc~ 666;
#X obj 180 0 osc~ 666;
#X obj 240 0 osc~ 666;
#X obj 300 0 osc~ 666;
#X obj 360 0 osc~ 666;
#X obj 420 0 osc~ 666;
#X obj 480 0 osc~ 666;
#X obj 540 0 osc~ 666;
#X obj 600 0 osc~ 666;
#X obj 660 0 osc~ 666;
#X obj 720 0 osc~ 666;
#X obj 780 0 osc~ 666;
#X obj 840 0 osc~ 666;
#X obj 900 0 osc~ 666;
#X obj 960 0 osc~ 666;
#X obj 1020 0 osc~ 666;
#X obj 1080 0 osc~ 666;
#X obj 1140 0 osc~ 666;
#X obj 1200 0 osc~ 666;
#X obj 1260 0 osc~ 666;
#X obj 1320 0 osc~ 666;
#X obj 1380 0 osc~ 666;
#X obj 1440 0 osc~ 666;
#X obj 1500 0 osc~ 666;
#X obj 1560 0 osc~ 666;
#X obj 1620 0 osc~ 666;
#X obj 1680 0 osc~ 666;
#X obj 1740 0 osc~ 666;
#X obj 1800 0 osc~ 666;
#X obj 1860 0 osc~ 666;
#X obj 1920 0 osc~ 666;
#X obj 1980 0 osc~ 666;
#X obj 2040 0 osc~ 666;
#X obj 2100 0 osc~ 666;
#X obj 2160 0 osc~ 666;
#X obj 2220 0 osc~ 666;
#X obj 2280 0 osc~ 666;
#X obj 2340 0 osc~ 666;
#X obj 2400 0 osc~ 666;
#X obj 2460 0 osc~ 666;
#X obj 2520 0 osc~ 666;
#X obj 2580 0 osc~ 666;
#X obj 2640 0 osc~ 666;
#X obj 2700 0 osc~ 666;
#X obj 2760 0 osc~ 666;
#X obj 2820 0 osc~ 666;
#X obj 2880 0 osc~ 666;
#X obj 2940 0 osc~ 666;
#X obj 3000 0 osc~ 666;
#X obj 3060 0 osc~ 666;
#X obj 3120 0 osc~ 666;
#X obj 3180 0 osc~ 666;
#X obj 3240 0 osc~ 666;
#X obj 3300 0 osc~ 666;
#X obj 3360 0 osc~ 666;
#X obj 3420 0 osc~ 666;
#X obj 3480 0 osc~ 666;
#X obj 3540 0 osc~ 666;
#X obj 3600 0 osc~ 666;
#X obj 3660 0 osc~ 666;
#X obj 3720 0 osc~ 666;
#X obj 3780 0 osc~ 666;
#X obj 3840 0 osc~ 666;
#X obj 3900 0 osc~ 666;
#X obj 3960 0 osc~ 666;
#X obj 4020 0 osc~ 666;
#X obj 4080 0 osc~ 666;
#X obj 4140 0 osc~ 666;
#X obj 4200 0 osc~ 666;
#X obj 4260 0 osc~ 666;
#X obj 4320 0 osc~ 666;
#X obj 4380 0 osc~ 666;
#X obj 4440 0 osc~ 666;
#X obj 4500 0 osc~ 666;
#X obj 4560 0 osc~ 666;
#X obj 4620 0 osc~ 666;
#X obj 4680 0 osc~ 666;
#X obj 4740 0 osc~ 666;
#X obj 4800 0 osc~ 666;
#X obj 4860 0 osc~ 666;
#X obj 4920 0 osc~ 666;
#X obj 4980 0 osc~ 666;
#X obj 5040 0 osc~ 666;
#X obj 5100 0 osc~ 666;
#X obj 5160 0 osc~ 666;
#X obj 5220 0 osc~ 666;
#X obj 5280 0 osc~ 666;
#X obj 5340 0 osc~ 666;
#X obj 5400 0 osc~ 666;
#X obj 5460 0 osc~ 666;
#X obj 5520 0 osc~ 666;
#X obj 5580 0 osc~ 666;
#X obj 5640 0 osc~ 666;
#X obj 5700 0 osc~ 666;
#X obj 5760 0 osc~ 666;
#X obj 5820 0 osc~ 666;
#X obj 5880 0 osc~ 666;
#X obj 5940 0 osc~ 666;
#X obj 6000 0 osc~ 666;
#X obj 6060 0 osc~ 666;
#X obj 6120 0 osc~ 666;
#X obj 6180 0 osc~ 666;
#X obj 6240 0 osc~ 666;
#X obj 6300 0 osc~ 666;
#X obj 6360 0 osc~ 666;
#X obj 6420 0 osc~ 666;
#X obj 6480 0 osc~ 666;
#X obj 6540 0 osc~ 666;
#X obj 6600 0 osc~ 666;
#X obj 6660 0 osc~ 666;
#X obj 6720 0 osc~ 666;
#X obj 6780 0 osc~ 666;
#X obj 6840 0 osc~ 666;
#X obj 6900 0 osc~ 666;
#X obj 6960 0 osc~ 666;
#X obj 7020 0 osc~ 666;
#X obj 7080 0 osc~ 666;
#X obj 7140 0 osc~ 666;
#X obj 7200 0 osc~ 666;
#X obj 7260 0 osc~ 666;
#X obj 7320 0 osc~ 666;
#X obj 7380 0 osc~ 666;
#X obj 7440 0 osc~ 666;
#X obj 7500 0 osc~ 666;
#X obj 7560 0 osc~ 666;
#X obj 7620 0 osc~ 666;
#X obj 7680 0 osc~ 666;
#X obj 7740 0 osc~ 666;
#X obj 7800 0 osc~ 666;
#X obj 7860 0 osc~ 666;
#X obj 7920 0 osc~ 666;
#X obj 7980 0 osc~ 666;
#X obj 8040 0 osc~ 666;
#X obj 8100 0 osc~ 666;
#X obj 8160 0 osc~ 666;
#X obj 8220 0 osc~ 666;
#X obj 8280 0 osc~ 666;
#X obj 8340 0 osc~ 666;
#X obj 8400 0 osc~ 666;
#X obj 8460 0 osc~ 666;
#X obj 8520 0 osc~ 666;
#X obj 8580 0 osc~ 666;
#X obj 8640 0 osc~ 666;
#X obj 8700 0 osc~ 666;
#X obj 8760 0 osc~ 666;
#X obj 8820 0 osc~ 666;
#X obj 8880 0 osc~ 666;
#X obj 8940 0 osc~ 666;
#X obj 9000 0 osc~ 666;
#X obj 9060 0 osc~ 666;
#X obj 9120 0 osc~ 666;
#X obj 9180 0 osc~ 666;
#X obj 9240 0 osc~ 666;
#X obj 9300 0 osc~ 666;
#X obj 9360 0 osc~ 666;
#X obj 9420 0 osc~ 666;
#X obj 9480 0 osc~ 666;
#X obj 9540 0 osc~ 666;
#X obj 9600 0 osc~ 666;
#X obj 9660 0 osc~ 666;
#X obj 9720 0 osc~ 666;
#X obj 9780 0 osc~ 666;
#X obj 9840 0 osc~ 666;
#X obj 9900 0 osc~ 666;
#X obj 9960 0 osc~ 666;
#X obj 10020 0 osc~ 666;
#X obj 10080 0 osc~ 666;
#X obj 10140 0 osc~ 666;
#X obj 10200 0 osc~ 666;
#X obj 10260 0 osc~ 666;
#X obj 10320 0 osc~ 666;
#X obj 10380 0 osc~ 666;
#X obj 10440 0 osc~ 666;
#X obj 10500 0 osc~ 666;
#X obj 10560 0 osc~ 666;
#X obj 10620 0 osc~ 666;
#X obj 10680 0 osc~ 666;
#X obj 10740 0 osc~ 666;
#X obj 10800 0 osc~ 666;
#X obj 10860 0 osc~ 666;
#X obj 10920 0 osc~ 666;
#X obj 10980 0 osc~ 666;
#X obj 11040 0 osc~ 666;
#X obj 11100 0 osc~ 666;
#X obj 11160 0 osc~ 666;
#X obj 11220 0 osc~ 666;
#X obj 11280 0 osc~ 666;
#X obj 11340 0 osc~ 666;
#X obj 11400 0 osc~ 666;
#X obj 11460 0 osc~ 666;
#X obj 11520 0 osc~ 666;
#X obj 11580 0 osc~ 666;
#X obj 11640 0 osc~ 666;
#X obj 11700 0 osc~ 666;
#X obj 11760 0 osc~ 666;
#X obj 11820 0 osc~ 666;
#X obj 11880 0 osc~ 666;
#X obj 11940 0 osc~ 666;
#X obj 12000 0 osc~ 666;
#X obj 12060 0 osc~ 666;
#X obj 12120 0 osc~ 666;
#X obj 12180 0 osc~ 666;
#X obj 12240 0 osc~ 666;
#X obj 12300 0 osc~ 666;
#X obj 12360 0 osc~ 666;
#X obj 12420 0 osc~ 666;
#X obj 12480 0 osc~ 666;
#X obj 12540 0 osc~ 666;
#X obj 12600 0 osc~ 666;
#X obj 12660 0 osc~ 666;
#X obj 12720 0 osc~ 666;
#X obj 12780 0 osc~ 666;
#X obj 12840 0 osc~ 666;
#X obj 12900 0 osc~ 666;
#X obj 12960 0 osc~ 666;
#X obj 13020 0 osc~ 666;
#X obj 13080 0 osc~ 666;
#X obj 13140 0 osc~ 666;
#X obj 13200 0 osc~ 666;
#X obj 13260 0 osc~ 666;
#X obj 13320 0 osc~ 666;
#X obj 13380 0 osc~ 666;
#X obj 13440 0 osc~ 666;
#X obj 13500 0 osc~ 666;
#X obj 13560 0 osc~ 666;
#X obj 13620 0 osc~ 666;
#X obj 13680 0 osc~ 666;
#X obj 13740 0 osc~ 666;
#X obj 13800 0 osc~ 666;
#X obj 13860 0 osc~ 666;
#X obj 13920 0 osc~ 666;
#X obj 13980 0 osc~ 666;
#X obj 14040 0 osc~ 666;
#X obj 14100 0 osc~ 666;
#X obj 14160 0 osc~ 666;
#X obj 14220 0 osc~ 666;
#X obj 14280 0 osc~ 666;
#X obj 14340 0 osc~ 666;
#X obj 14400 0 osc~ 666;
#X obj 14460 0 osc~ 666;
#X obj 14520 0 osc~ 666;
#X obj 14580 0 osc~ 666;
#X obj 14640 0 osc~ 666;
#X obj 14700 0 osc~ 666;
#X obj 14760 0 osc~ 666;
#X obj 14820 0 osc~ 666;
#X obj 14880 0 osc~ 666;
#X obj 14940 0 osc~ 666;
#X obj 15000 0 osc~ 666;
#X obj 15060 0 osc~ 666;
#X obj 15120 0 osc~ 666;
#X obj 15180 0 osc~ 666;
#X obj 15240 0 osc~ 666;
#X obj 15300 0 osc~ 666;
#X obj 15360 0 osc~ 666;
#X obj 15420 0 osc~ 666;
#X obj 15480 0 osc~ 666;
#X obj 15540 0 osc~ 666;
#X obj 15600 0 osc~ 666;
#X obj 15660 0 osc~ 666;
#X obj 15720 0 osc~ 666;
#X obj 15780 0 osc~ 666;
#X obj 15840 0 osc~ 666;
#X obj 15900 0 osc~ 666;
#X obj 15960 0 osc~ 666;
#X obj 16020 0 osc~ 666;
#X obj 16080 0 osc~ 666;
#X obj 16140 0 osc~ 666;
#X obj 16200 0 osc~ 666;
#X obj 16260 0 osc~ 666;
#X obj 16320 0 osc~ 666;
#X obj 16380 0 osc~ 666;
#X obj 16440 0 osc~ 666;
#X obj 16500 0 osc~ 666;
#X obj 16560 0 osc~ 666;
#X obj 16620 0 osc~ 666;
#X obj 16680 0 osc~ 666;
#X obj 16740 0 osc~ 666;
#X obj 16800 0 osc~ 666;
#X obj 16860 0 osc~ 666;
#X obj 16920 0 osc~ 666;
#X obj 16980 0 osc~ 666;
#X obj 17040 0 osc~ 666;
#X obj 17100 0 osc~ 666;
#X obj 17160 0 osc~ 666;
#X obj 17220 0 osc~ 666;
#X obj 17280 0 osc~ 666;
#X obj 17340 0 osc~ 666;
#X obj 17400 0 osc~ 666;
#X obj 17460 0 osc~ 666;
#X obj 17520 0 osc~ 666;
#X obj 17580 0 osc~ 666;
#X obj 17640 0 osc~ 666;
#X obj 17700 0 osc~ 666;
#X obj 17760 0 osc~ 666;
#X obj 17820 0 osc~ 666;
#X obj 17880 0 osc~ 666;
#X obj 17940 0 osc~ 666;
#X obj 18000 0 osc~ 666;
#X obj 18060 0 osc~ 666;
#X obj 18120 0 osc~ 666;
#X obj 18180 0 osc~ 666;
#X obj 18240 0 osc~ 666;
#X obj 18300 0 osc~ 666;
#X obj 18360 0 osc~ 666;
#X obj 18420 0 osc~ 666;
#X obj 18480 0 osc~ 666;
#X obj 18540 0 osc~ 666;
#X obj 18600 0 osc~ 666;
#X obj 18660 0 osc~ 666;
#X obj 18720 0 osc~ 666;
#X obj 18780 0 osc~ 666;
#X obj 18840 0 osc~ 666;
#X obj 18900 0 osc~ 666;
#X obj 18960 0 osc~ 666;
#X obj 19020 0 osc~ 666;
#X obj 19080 0 osc~ 666;
#X obj 19140 0 osc~ 666;
#X obj 19200 0 osc~ 666;
#X obj 19260 0 osc~ 666;
#X obj 19320 0 osc~ 666;
#X obj 19380 0 osc~ 666;
#X obj 19440 0 osc~ 666;
#X obj 19500 0 osc~ 666;
#X obj 19560 0 osc~ 666;
#X obj 19620 0 osc~ 666;
#X obj 19680 0 osc~ 666;
#X obj 19740 0 osc~ 666;
#X obj 19800 0 osc~ 666;
#X obj 19860 0 osc~ 666;
#X obj 19920 0 osc~ 666;
#X obj 19980 0 osc~ 666;
#X obj 20040 0 osc~ 666;
#X obj 20100 0 osc~ 666;
#X obj 20160 0 osc~ 666;
#X obj 20220 0 osc~ 666;
#X obj 20280 0 osc~ 666;
#X obj 20340 0 osc~ 666;
#X obj 20400 0 osc~ 666;
#X obj 20460 0 osc~ 666;
#X obj 20520 0 osc~ 666;
#X obj 20580 0 osc~ 666;
#X obj 20640 0 osc~ 666;
#X obj 20700 0 osc~ 666;
#X obj 20760 0 osc~ 666;
#X obj 20820 0 osc~ 666;
#X obj 20880 0 osc~ 666;
#X obj 20940 0 osc~ 666;
#X obj 21000 0 osc~ 666;
#X obj 21060 0 osc~ 666;
#X obj 21120 0 osc~ 666;
#X obj 21180 0 osc~ 666;
#X obj 21240 0 osc~ 666;
#X obj 21300 0 osc~ 666;
#X obj 21360 0 osc~ 666;
#X obj 21420 0 osc~ 666;
#X obj 21480 0 osc~ 666;
#X obj 21540 0 osc~ 666;
#X obj 21600 0 osc~ 666;
#X obj 21660 0 osc~ 666;
#X obj 21720 0 osc~ 666;
#X obj 21780 0 osc~ 666;
#X obj 21840 0 osc~ 666;
#X obj 21900 0 osc~ 666;
#X obj 21960 0 osc~ 666;
#X obj 22020 0 osc~ 666;
#X obj 22080 0 osc~ 666;
#X obj 22140 0 osc~ 666;
#X obj 22200 0 osc~ 666;
#X obj 22260 0 osc~ 666;
#X obj 22320 0 osc~ 666;
#X obj 22380 0 osc~ 666;
#X obj 22440 0 osc~ 666;
#X obj 22500 0 osc~ 666;
#X obj 22560 0 osc~ 666;
#X obj 22620 0 osc~ 666;
#X obj 22680 0 osc~ 666;
#X obj 22740 0 osc~ 666;
#X obj 22800 0 osc~ 666;
#X obj 22860 0 osc~ 666;
#X obj 22920 0 osc~ 666;
#X obj 22980 0 osc~ 666;
#X obj 23040 0 osc~ 666;
#X obj 23100 0 osc~ 666;
#X obj 23160 0 osc~ 666;
#X obj 23220 0 osc~ 666;
#X obj 23280 0 osc~ 666;
#X obj 23340 0 osc~ 666;
#X obj 23400 0 osc~ 666;
#X obj 23460 0 osc~ 666;
#X obj 23520 0 osc~ 666;
#X obj 23580 0 osc~ 666;
#X obj 23640 0 osc~ 666;
#X obj 23700 0 osc~ 666;
#X obj 23760 0 osc~ 666;
#X obj 23820 0 osc~ 666;
#X obj 23880 0 osc~ 666;
#X obj 23940 0 osc~ 666;
#X obj 24000 0 osc~ 666;
#X obj 24060 0 osc~ 666;
#X obj 24120 0 osc~ 666;
#X obj 24180 0 osc~ 666;
#X obj 24240 0 osc~ 666;
#X obj 24300 0 osc~ 666;
#X obj 24360 0 osc~ 666;
#X obj 24420 0 osc~ 666;
#X obj 24480 0 osc~ 666;
#X obj 24540 0 osc~ 666;
#X obj 24600 0 osc~ 666;
#X obj 24660 0 osc~ 666;
#X obj 24720 0 osc~ 666;
#X obj 24780 0 osc~ 666;
#X obj 24840 0 osc~ 666;
#X obj 24900 0 osc~ 666;
#X obj 24960 0 osc~ 666;
#X obj 25020 0 osc~ 666;
#X obj 25080 0 osc~ 666;
#X obj 25140 0 osc~ 666;
#X obj 25200 0 osc~ 666;
#X obj 25260 0 osc~ 666;
#X obj 25320 0 osc~ 666;
#X obj 25380 0 osc~ 666;
#X obj 25440 0 osc~ 666;
#X obj 25500 0 osc~ 666;
#X obj 25560 0 osc~ 666;
#X obj 25620 0 osc~ 666;
#X obj 25680 0 osc~ 666;
#X obj 25740 0 osc~ 666;
#X obj 25800 0 osc~ 666;
#X obj 25860 0 osc~ 666;
#X obj 25920 0 osc~ 666;
#X obj 25980 0 osc~ 666;
#X obj 26040 0 osc~ 666;
#X obj 26100 0 osc~ 666;
#X obj 26160 0 osc~ 666;
#X obj 26220 0 osc~ 666;
#X obj 26280 0 osc~ 666;
#X obj 26340 0 osc~ 666;
#X obj 26400 0 osc~ 666;
#X obj 26460 0 osc~ 666;
#X obj 26520 0 osc~ 666;
#X obj 26580 0 osc~ 666;
#X obj 26640 0 osc~ 666;
#X obj 26700 0 osc~ 666;
#X obj 26760 0 osc~ 666;
#X obj 26820 0 osc~ 666;
#X obj 26880 0 osc~ 666;
#X obj 26940 0 osc~ 666;
#X obj 27000 0 osc~ 666;
#X obj 27060 0 osc~ 666;
#X obj 27120 0 osc~ 666;
#X obj 27180 0 osc~ 666;
#X obj 27240 0 osc~ 666;
#X obj 27300 0 osc~ 666;
#X obj 27360 0 osc~ 666;
#X obj 27420 0 osc~ 666;
#X obj 27480 0 osc~ 666;
#X obj 27540 0 osc~ 666;
#X obj 27600 0 osc~ 666;
#X obj 27660 0 osc~ 666;
#X obj 27720 0 osc~ 666;
#X obj 27780 0 osc~ 666;
#X obj 27840 0 osc~ 666;
#X obj 27900 0 osc~ 666;
#X obj 27960 0 osc~ 666;
#X obj 28020 0 osc~ 666;
#X obj 28080 0 osc~ 666;
#X obj 28140 0 osc~ 666;
#X obj 28200 0 osc~ 666;
#X obj 28260 0 osc~ 666;
#X obj 28320 0 osc~ 666;
#X obj 28380 0 osc~ 666;
#X obj 28440 0 osc~ 666;
#X obj 28500 0 osc~ 666;
#X obj 28560 0 osc~ 666;
#X obj 28620 0 osc~ 666;
#X obj 28680 0 osc~ 666;
#X obj 28740 0 osc~ 666;
#X obj 28800 0 osc~ 666;
#X obj 28860 0 osc~ 666;
#X obj 28920 0 osc~ 666;
#X obj 28980 0 osc~ 666;
#X obj 29040 0 osc~ 666;
#X obj 29100 0 osc~ 666;
#X obj 29160 0 osc~ 666;
#X obj 29220 0 osc~ 666;
#X obj 29280 0 osc~ 666;
#X obj 29340 0 osc~ 666;
#X obj 29400 0 osc~ 666;
#X obj 29460 0 osc~ 666;
#X obj 29520 0 osc~ 666;
#X obj 29580 0 osc~ 666;
#X obj 29640 0 osc~ 666;
#X obj 29700 0 osc~ 666;
#X obj 29760 0 osc~ 666;
#X obj 29820 0 osc~ 666;
#X obj 29880 0 osc~ 666;
#X obj 29940 0 osc~ 666;
#X obj 30000 0 osc~ 666;
#X obj 30060 0 osc~ 666;
#X obj 30120 0 osc~ 666;
#X obj 30180 0 osc~ 666;
#X obj 30240 0 osc~ 666;
#X obj 30300 0 osc~ 666;
#X obj 30360 0 osc~ 666;
#X obj 30420 0 osc~ 666;
#X obj 30480 0 osc~ 666;
#X obj 30540 0 osc~ 666;
#X obj 30600 0 osc~ 666;
#X obj 30660 0 osc~ 666;
#X obj 30720 0 osc~ 666;
#X obj 30780 0 osc~ 666;
#X obj 30840 0 osc~ 666;
#X obj 30900 0 osc~ 666;
#X obj 30960 0 osc~ 666;
#X obj 31020 0 osc~ 666;
#X obj 31080 0 osc~ 666;
#X obj 31140 0 osc~ 666;
#X obj 31200 0 osc~ 666;
#X obj 31260 0 osc~ 666;
#X obj 31320 0 osc~ 666;
#X obj 31380 0 osc~ 666;
#X obj 31440 0 osc~ 666;
#X obj 31500 0 osc~ 666;
#X obj 31560 0 osc~ 666;
#X obj 31620 0 osc~ 666;
#X obj 31680 0 osc~ 666;
#X obj 31740 0 osc~ 666;
#X obj 31800 0 osc~ 666;
#X obj 31860 0 osc~ 666;
#X obj 31920 0 osc~ 666;
#X obj 31980 0 osc~ 666;
#X obj 32040 0 osc~ 666;
#X obj 32100 0 osc~ 666;
#X obj 32160 0 osc~ 666;
#X obj 32220 0 osc~ 666;
#X obj 32280 0 osc~ 666;
#X obj 32340 0 osc~ 666;
#X obj 32400 0 osc~ 666;
#X obj 32460 0 osc~ 666;
#X obj 32520 0 osc~ 666;
#X obj 32580 0 osc~ 666;
#X obj 32640 0 osc~ 666;
#X obj 32700 0 osc~ 666;
#X obj 32760 0 osc~ 666;
#X obj 32820 0 osc~ 666;
#X obj 32880 0 osc~ 666;
#X obj 32940 0 osc~ 666;
#X obj 33000 0 osc~ 666;
#X obj 33060 0 osc~ 666;
#X obj 33120 0 osc~ 666;
#X obj 33180 0 osc~ 666;
#X obj 33240 0 osc~ 666;
#X obj 33300 0 osc~ 666;
#X obj 33360 0 osc~ 666;
#X obj 33420 0 osc~ 666;
#X obj 33480 0 osc~ 666;
#X obj 33540 0 osc~ 666;
#X obj 33600 0 osc~ 666;
#X obj 33660 0 osc~ 666;
#X obj 33720 0 osc~ 666;
#X obj 33780 0 osc~ 666;
#X obj 33840 0 osc~ 666;
#X obj 33900 0 osc~ 666;
#X obj 33960 0 osc~ 666;
#X obj 34020 0 osc~ 666;
#X obj 34080 0 osc~ 666;
#X obj 34140 0 osc~ 666;
#X obj 34200 0 osc~ 666;
#X obj 34260 0 osc~ 666;
#X obj 34320 0 osc~ 666;
#X obj 34380 0 osc~ 666;
#X obj 34440 0 osc~ 666;
#X obj 34500 0 osc~ 666;
#X obj 34560 0 osc~ 666;
#X obj 34620 0 osc~ 666;
#X obj 34680 0 osc~ 666;
#X obj 34740 0 osc~ 666;
#X obj 34800 0 osc~ 666;
#X obj 34860 0 osc~ 666;
#X obj 34920 0 osc~ 666;
#X obj 34980 0 osc~ 666;
#X obj 35040 0 osc~ 666;
#X obj 35100 0 osc~ 666;
#X obj 35160 0 osc~ 666;
#X obj 35220 0 osc~ 666;
#X obj 35280 0 osc~ 666;
#X obj 35340 0 osc~ 666;
#X obj 35400 0 osc~ 666;
#X obj 35460 0 osc~ 666;
#X obj 35520 0 osc~ 666;
#X obj 35580 0 osc~ 666;
#X obj 35640 0 osc~ 666;
#X obj 35700 0 osc~ 666;
#X obj 35760 0 osc~ 666;
#X obj 35820 0 osc~ 666;
#X obj 35880 0 osc~ 666;
#X obj 35940 0 osc~ 666;
#X obj 36000 0 osc~ 666;
#X obj 36060 0 osc~ 666;
#X obj 36120 0 osc~ 666;
#X obj 36180 0 osc~ 666;
#X obj 36240 0 osc~ 666;
#X obj 36300 0 osc~ 666;
#X obj 36360 0 osc~ 666;
#X obj 36420 0 osc~ 666;
#X obj 36480 0 osc~ 666;
#X obj 36540 0 osc~ 666;
#X obj 36600 0 osc~ 666;
#X obj 36660 0 osc~ 666;
#X obj 36720 0 osc~ 666;
#X obj 36780 0 osc~ 666;
#X obj 36840 0 osc~ 666;
#X obj 36900 0 osc~ 666;
#X obj 36960 0 osc~ 666;
#X obj 37020 0 osc~ 666;
#X obj 37080 0 osc~ 666;
#X obj 37140 0 osc~ 666;
#X obj 37200 0 osc~ 666;
#X obj 37260 0 osc~ 666;
#X obj 37320 0 osc~ 666;
#X obj 37380 0 osc~ 666;
#X obj 37440 0 osc~ 666;
#X obj 37500 0 osc~ 666;
#X obj 37560 0 osc~ 666;
#X obj 37620 0 osc~ 666;
#X obj 37680 0 osc~ 666;
#X obj 37740 0 osc~ 666;
#X obj 37800 0 osc~ 666;
#X obj 37860 0 osc~ 666;
#X obj 37920 0 osc~ 666;
#X obj 37980 0 osc~ 666;
#X obj 38040 0 osc~ 666;
#X obj 38100 0 osc~ 666;
#X obj 38160 0 osc~ 666;
#X obj 38220 0 osc~ 666;
#X obj 38280 0 osc~ 666;
#X obj 38340 0 osc~ 666;
#X obj 38400 0 osc~ 666;
#X obj 38460 0 osc~ 666;
#X obj 38520 0 osc~ 666;
#X obj 38580 0 osc~ 666;
#X obj 38640 0 osc~ 666;
#X obj 38700 0 osc~ 666;
#X obj 38760 0 osc~ 666;
#X obj 38820 0 osc~ 666;
#X obj 38880 0 osc~ 666;
#X obj 38940 0 osc~ 666;
#X obj 39000 0 osc~ 666;
#X obj 39060 0 osc~ 666;
#X obj 39120 0 osc~ 666;
#X obj 39180 0 osc~ 666;
#X obj 39240 0 osc~ 666;
#X obj 39300 0 osc~ 666;
#X obj 39360 0 osc~ 666;
#X obj 39420 0 osc~ 666;
#X obj 39480 0 osc~ 666;
#X obj 39540 0 osc~ 666;
#X obj 39600 0 osc~ 666;
#X obj 39660 0 osc~ 666;
#X obj 39720 0 osc~ 666;
#X obj 39780 0 osc~ 666;
#X obj 39840 0 osc~ 666;
#X obj 39900 0 osc~ 666;
#X obj 39960 0 osc~ 666;
#X obj 40020 0 osc~ 666;
#X obj 40080 0 osc~ 666;
#X obj 40140 0 osc~ 666;
#X obj 40200 0 osc~ 666;
#X obj 40260 0 osc~ 666;
#X obj 40320 0 osc~ 666;
#X obj 40380 0 osc~ 666;
#X obj 40440 0 osc~ 666;
#X obj 40500 0 osc~ 666;
#X obj 40560 0 osc~ 666;
#X obj 40620 0 osc~ 666;
#X obj 40680 0 osc~ 666;
#X obj 40740 0 osc~ 666;
#X obj 40800 0 osc~ 666;
#X obj 40860 0 osc~ 666;
#X obj 40920 0 osc~ 666;
#X obj 40980 0 osc~ 666;
#X obj 41040 0 osc~ 666;
#X obj 41100 0 osc~ 666;
#X obj 41160 0 osc~ 666;
#X obj 41220 0 osc~ 666;
#X obj 41280 0 osc~ 666;
#X obj 41340 0 osc~ 666;
#X obj 41400 0 osc~ 666;
#X obj 41460 0 osc~ 666;
#X obj 41520 0 osc~ 666;
#X obj 41580 0 osc~ 666;
#X obj 41640 0 osc~ 666;
#X obj 41700 0 osc~ 666;
#X obj 41760 0 osc~ 666;
#X obj 41820 0 osc~ 666;
#X obj 41880 0 osc~ 666;
#X obj 41940 0 osc~ 666;
#X obj 42000 0 osc~ 666;
#X obj 42060 0 osc~ 666;
#X obj 42120 0 osc~ 666;
#X obj 42180 0 osc~ 666;
#X obj 42240 0 osc~ 666;
#X obj 42300 0 osc~ 666;
#X obj 42360 0 osc~ 666;
#X obj 42420 0 osc~ 666;
#X obj 42480 0 osc~ 666;
#X obj 42540 0 osc~ 666;
#X obj 42600 0 osc~ 666;
#X obj 42660 0 osc~ 666;
#X obj 42720 0 osc~ 666;
#X obj 42780 0 osc~ 666;
#X obj 42840 0 osc~ 666;
#X obj 42900 0 osc~ 666;
#X obj 42960 0 osc~ 666;
#X obj 43020 0 osc~ 666;
#X obj 43080 0 osc~ 666;
#X obj 43140 0 osc~ 666;
#X obj 43200 0 osc~ 666;
#X obj 43260 0 osc~ 666;
#X obj 43320 0 osc~ 666;
#X obj 43380 0 osc~ 666;
#X obj 43440 0 osc~ 666;
#X obj 43500 0 osc~ 666;
#X obj 43560 0 osc~ 666;
#X obj 43620 0 osc~ 666;
#X obj 43680 0 osc~ 666;
#X obj 43740 0 osc~ 666;
#X obj 43800 0 osc~ 666;
#X obj 43860 0 osc~ 666;
#X obj 43920 0 osc~ 666;
#X obj 43980 0 osc~ 666;
#X obj 44040 0 osc~ 666;
#X obj 44100 0 osc~ 666;
#X obj 44160 0 osc~ 666;
#X obj 44220 0 osc~ 666;
#X obj 44280 0 osc~ 666;
#X obj 44340 0 osc~ 666;
#X obj 44400 0 osc~ 666;
#X obj 44460 0 osc~ 666;
#X obj 44520 0 osc~ 666;
#X obj 44580 0 osc~ 666;
#X obj 44640 0 osc~ 666;
#X obj 44700 0 osc~ 666;
#X obj 44760 0 osc~ 666;
#X obj 44820 0 osc~ 666;
#X obj 44880 0 osc~ 666;
#X obj 44940 0 osc~ 666;
#X obj 45000 0 osc~ 666;
#X obj 45060 0 osc~ 666;
#X obj 45120 0 osc~ 666;
#X obj 45180 0 osc~ 666;
#X obj 45240 0 osc~ 666;
#X obj 45300 0 osc~ 666;
#X obj 45360 0 osc~ 666;
#X obj 45420 0 osc~ 666;
#X obj 45480 0 osc~ 666;
#X obj 45540 0 osc~ 666;
#X obj 45600 0 osc~ 666;
#X obj 45660 0 osc~ 666;
#X obj 45720 0 osc~ 666;
#X obj 45780 0 osc~ 666;
#X obj 45840 0 osc~ 666;
#X obj 45900 0 osc~ 666;
#X obj 45960 0 osc~ 666;
#X obj 46020 0 osc~ 666;
#X obj 46080 0 osc~ 666;
#X obj 46140 0 osc~ 666;
#X obj 46200 0 osc~ 666;
#X obj 46260 0 osc~ 666;
#X obj 46320 0 osc~ 666;
#X obj 46380 0 osc~ 666;
#X obj 46440 0 osc~ 666;
#X obj 46500 0 osc~ 666;
#X obj 46560 0 osc~ 666;
#X obj 46620 0 osc~ 666;
#X obj 46680 0 osc~ 666;
#X obj 46740 0 osc~ 666;
#X obj 46800 0 osc~ 666;
#X obj 46860 0 osc~ 666;
#X obj 46920 0 osc~ 666;
#X obj 46980 0 osc~ 666;
#X obj 47040 0 osc~ 666;
#X obj 47100 0 osc~ 666;
#X obj 47160 0 osc~ 666;
#X obj 47220 0 osc~ 666;
#X obj 47280 0 osc~ 666;
#X obj 47340 0 osc~ 666;
#X obj 47400 0 osc~ 666;
#X obj 47460 0 osc~ 666;
#X obj 47520 0 osc~ 666;
#X obj 47580 0 osc~ 666;
#X obj 47640 0 osc~ 666;
#X obj 47700 0 osc~ 666;
#X obj 47760 0 osc~ 666;
#X obj 47820 0 osc~ 666;
#X obj 47880 0 osc~ 666;
#X obj 47940 0 osc~ 666;
#X obj 48000 0 osc~ 666;
#X obj 48060 0 osc~ 666;
#X obj 48120 0 osc~ 666;
#X obj 48180 0 osc~ 666;
#X obj 48240 0 osc~ 666;
#X obj 48300 0 osc~ 666;
#X obj 48360 0 osc~ 666;
#X obj 48420 0 osc~ 666;
#X obj 48480 0 osc~ 666;
#X obj 48540 0 osc~ 666;
#X obj 48600 0 osc~ 666;
#X obj 48660 0 osc~ 666;
#X obj 48720 0 osc~ 666;
#X obj 48780 0 osc~ 666;
#X obj 48840 0 osc~ 666;
#X obj 48900 0 osc~ 666;
#X obj 48960 0 osc~ 666;
#X obj 49020 0 osc~ 666;
#X obj 49080 0 osc~ 666;
#X obj 49140 0 osc~ 666;
#X obj 49200 0 osc~ 666;
#X obj 49260 0 osc~ 666;
#X obj 49320 0 osc~ 666;
#X obj 49380 0 osc~ 666;
#X obj 49440 0 osc~ 666;
#X obj 49500 0 osc~ 666;
#X obj 49560 0 osc~ 666;
#X obj 49620 0 osc~ 666;
#X obj 49680 0 osc~ 666;
#X obj 49740 0 osc~ 666;
#X obj 49800 0 osc~ 666;
#X obj 49860 0 osc~ 666;
#X obj 49920 0 osc~ 666;
#X obj 49980 0 osc~ 666;
#X obj 50040 0 osc~ 666;
#X obj 50100 0 osc~ 666;
#X obj 50160 0 osc~ 666;
#X obj 50220 0 osc~ 666;
#X obj 50280 0 osc~ 666;
#X obj 50340 0 osc~ 666;
#X obj 50400 0 osc~ 666;
#X obj 50460 0 osc~ 666;
#X obj 50520 0 osc~ 666;
#X obj 50580 0 osc~ 666;
#X obj 50640 0 osc~ 666;
#X obj 50700 0 osc~ 666;
#X obj 50760 0 osc~ 666;
#X obj 50820 0 osc~ 666;
#X obj 50880 0 osc~ 666;
#X obj 50940 0 osc~ 666;
#X obj 51000 0 osc~ 666;
#X obj 51060 0 osc~ 666;
#X obj 51120 0 osc~ 666;
#X obj 51180 0 osc~ 666;
#X obj 51240 0 osc~ 666;
#X obj 51300 0 osc~ 666;
#X obj 51360 0 osc~ 666;
#X obj 51420 0 osc~ 666;
#X obj 51480 0 osc~ 666;
#X obj 51540 0 osc~ 666;
#X obj 51600 0 osc~ 666;
#X obj 51660 0 osc~ 666;
#X obj 51720 0 osc~ 666;
#X obj 51780 0 osc~ 666;
#X obj 51840 0 osc~ 666;
#X obj 51900 0 osc~ 666;
#X obj 51960 0 osc~ 666;
#X obj 52020 0 osc~ 666;
#X obj 52080 0 osc~ 666;
#X obj 52140 0 osc~ 666;
#X obj 52200 0 osc~ 666;
#X obj 52260 0 osc~ 666;
#X obj 52320 0 osc~ 666;
#X obj 52380 0 osc~ 666;
#X obj 52440 0 osc~ 666;
#X obj 52500 0 osc~ 666;
#X obj 52560 0 osc~ 666;
#X obj 52620 0 osc~ 666;
#X obj 52680 0 osc~ 666;
#X obj 52740 0 osc~ 666;
#X obj 52800 0 osc~ 666;
#X obj 52860 0 osc~ 666;
#X obj 52920 0 osc~ 666;
#X obj 52980 0 osc~ 666;
#X obj 53040 0 osc~ 666;
#X obj 53100 0 osc~ 666;
#X obj 53160 0 osc~ 666;
#X obj 53220 0 osc~ 666;
#X obj 53280 0 osc~ 666;
#X obj 53340 0 osc~ 666;
#X obj 53400 0 osc~ 666;
#X obj 53460 0 osc~ 666;
#X obj 53520 0 osc~ 666;
#X obj 53580 0 osc~ 666;
#X obj 53640 0 osc~ 666;
#X obj 53700 0 osc~ 666;
#X obj 53760 0 osc~ 666;
#X obj 53820 0 osc~ 666;
#X obj 53880 0 osc~ 666;
#X obj 53940 0 osc~ 666;
#X obj 54000 0 osc~ 666;
#X obj 54060 0 osc~ 666;
#X obj 54120 0 osc~ 666;
#X obj 54180 0 osc~ 666;
#X obj 54240 0 osc~ 666;
#X obj 54300 0 osc~ 666;
#X obj 54360 0 osc~ 666;
#X obj 54420 0 osc~ 666;
#X obj 54480 0 osc~ 666;
#X obj 54540 0 osc~ 666;
#X obj 54600 0 osc~ 666;
#X obj 54660 0 osc~ 666;
#X obj 54720 0 osc~ 666;
#X obj 54780 0 osc~ 666;
#X obj 54840 0 osc~ 666;
#X obj 54900 0 osc~ 666;
#X obj 54960 0 osc~ 666;
#X obj 55020 0 osc~ 666;
#X obj 55080 0 osc~ 666;
#X obj 55140 0 osc~ 666;
#X obj 55200 0 osc~ 666;
#X obj 55260 0 osc~ 666;
#X obj 55320 0 osc~ 666;
#X obj 55380 0 osc~ 666;
#X obj 55440 0 osc~ 666;
#X obj 55500 0 osc~ 666;
#X obj 55560 0 osc~ 666;
#X obj 55620 0 osc~ 666;
#X obj 55680 0 osc~ 666;
#X obj 55740 0 osc~ 666;
#X obj 55800 0 osc~ 666;
#X obj 55860 0 osc~ 666;
#X obj 55920 0 osc~ 666;
#X obj 55980 0 osc~ 666;
#X obj 56040 0 osc~ 666;
#X obj 56100 0 osc~ 666;
#X obj 56160 0 osc~ 666;
#X obj 56220 0 osc~ 666;
#X obj 56280 0 osc~ 666;
#X obj 56340 0 osc~ 666;
#X obj 56400 0 osc~ 666;
#X obj 56460 0 osc~ 666;
#X obj 56520 0 osc~ 666;
#X obj 56580 0 osc~ 666;
#X obj 56640 0 osc~ 666;
#X obj 56700 0 osc~ 666;
#X obj 56760 0 osc~ 666;
#X obj 56820 0 osc~ 666;
#X obj 56880 0 osc~ 666;
#X obj 56940 0 osc~ 666;
#X obj 57000 0 osc~ 666;
#X obj 57060 0 osc~ 666;
#X obj 57120 0 osc~ 666;
#X obj 57180 0 osc~ 666;
#X obj 57240 0 osc~ 666;
#X obj 57300 0 osc~ 666;
#X obj 57360 0 osc~ 666;
#X obj 57420 0 osc~ 666;
#X obj 57480 0 osc~ 666;
#X obj 57540 0 osc~ 666;
#X obj 57600 0 osc~ 666;
#X obj 57660 0 osc~ 666;
#X obj 57720 0 osc~ 666;
#X obj 57780 0 osc~ 666;
#X obj 57840 0 osc~ 666;
#X obj 57900 0 osc~ 666;
#X obj 57960 0 osc~ 666;
#X obj 58020 0 osc~ 666;
#X obj 58080 0 osc~ 666;
#X obj 58140 0 osc~ 666;
#X obj 58200 0 osc~ 666;
#X obj 58260 0 osc~ 666;
#X obj 58320 0 osc~ 666;
#X obj 58380 0 osc~ 666;
#X obj 58440 0 osc~ 666;
#X obj 58500 0 osc~ 666;
#X obj 58560 0 osc~ 666;
#X obj 58620 0 osc~ 666;
#X obj 58680 0 osc~ 666;
#X obj 58740 0 osc~ 666;
#X obj 58800 0 osc~ 666;
#X obj 58860 0 osc~ 666;
#X obj 58920 0 osc~ 666;
#X obj 58980 0 osc~ 666;
#X obj 59040 0 osc~ 666;
#X obj 59100 0 osc~ 666;
#X obj 59160 0 osc~ 666;
#X obj 59220 0 osc~ 666;
#X obj 59280 0 osc~ 666;
#X obj 59340 0 osc~ 666;
#X obj 59400 0 osc~ 666;
#X obj 59460 0 osc~ 666;
#X obj 59520 0 osc~ 666;
#X obj 59580 0 osc~ 666;
#X obj 59640 0 osc~ 666;
#X obj 59700 0 osc~ 666;
#X obj 59760 0 osc~ 666;
#X obj 59820 0 osc~ 666;
#X obj 59880 0 osc~ 666;
#X obj 59940 0 osc~ 666;
#X obj 0 100 *~ 0.001000;
#X obj 0 130 dac~ 1 2;
#X connect 0 0 1000 0;
#X connect 1 0 1000 0;
#X connect 2 0 1000 0;
#X connect 3 0 1000 0;
#X connect 4 0 1000 0;
#X connect 5 0 1000 0;
#X connect 6 0 1000 0;
#X connect 7 0 1000 0;
#X connect 8 0 1000 0;
#X connect 9 0 1000 0;
#X connect 10 0 1000 0;
#X connect 11 0 1000 0;
#X connect 12 0 1000 0;
#X connect 13 0 1000 0;
#X connect 14 0 1000 0;
#X connect 15 0 1000 0;
#X connect 16 0 1000 0;
#X connect 17 0 1000 0;
#X connect 18 0 1000 0;
#X connect 19 0 1000 0;
#X connect 20 0 1000 0;
#X connect 21 0 1000 0;
#X connect 22 0 1000 0;
#X connect 23 0 1000 0;
#X connect 24 0 1000 0;
#X connect 25 0 1000 0;
#X connect 26 0 1000 0;
#X connect 27 0 1000 0;
#X connect 28 0 1000 0;
#X connect 29 0 1000 0;
#X connect 30 0 1000 0;
#X connect 31 0 1000 0;
#X connect 32 0 1000 0;
#X connect 33 0 1000 0;
#X connect 34 0 1000 0;
#X connect 35 0 1000 0;
#X connect 36 0 1000 0;
#X connect 37 0 1000 0;
#X connect 38 0 1000 0;
#X connect 39 0 1000 0;
#X connect 40 0 1000 0;
#X connect 41 0 1000 0;
#X connect 42 0 1000 0;
#X connect 43 0 1000 0;
#X connect 44 0 1000 0;
#X connect 45 0 1000 0;
#X connect 46 0 1000 0;
#X connect 47 0 1000 0;
#X connect 48 0 1000 0;
#X connect 49 0 1000 0;
#X connect 50 0 1000 0;
#X connect 51 0 1000 0;
#X connect 52 0 1000 0;
#X connect 53 0 1000 0;
#X connect 54 0 1000 0;
#X connect 55 0 1000 0;
#X connect 56 0 1000 0;
#X connect 57 0 1000 0;
#X connect 58 0 1000 0;
#X connect 59 0 1000 0;
#X connect 60 0 1000 0;
#X connect 61 0 1000 0;
#X connect 62 0 1000 0;
#X connect 63 0 1000 0;
#X connect 64 0 1000 0;
#X connect 65 0 1000 0;
#X connect 66 0 1000 0;
#X connect 67 0 1000 0;
#X connect 68 0 1000 0;
#X connect 69 0 1000 0;
#X connect 70 0 1000 0;
#X connect 71 0 1000 0;
#X connect 72 0 1000 0;
#X connect 73 0 1000 0;
#X connect 74 0 1000 0;
#X connect 75 0 1000 0;
#X connect 76 0 1000 0;
#X connect 77 0 1000 0;
#X connect 78 0 1000 0;
#X connect 79 0 1000 0;
#X connect 80 0 1000 0;
#X connect 81 0 1000 0;
#X connect 82 0 1000 0;
#X connect 83 0 1000 0;
#X connect 84 0 1000 0;
#X connect 85 0 1000 0;
#X connect 86 0 1000 0;
#X connect 87 0 1000 0;
#X connect 88 0 1000 0;
#X connect 89 0 1000 0;
#X connect 90 0 1000 0;
#X connect 91 0 1000 0;
#X connect 92 0 1000 0;
#X connect 93 0 1000 0;
#X connect 94 0 1000 0;
#X connect 95 0 1000 0;
#X connect 96 0 1000 0;
#X connect 97 0 1000 0;
#X connect 98 0 1000 0;
#X connect 99 0 1000 0;
#X connect 100 0 1000 0;
#X connect 101 0 1000 0;
#X connect 102 0 1000 0;
#X connect 103 0 1000 0;
#X connect 104 0 1000 0;
#X connect 105 0 1000 0;
#X connect 106 0 1000 0;
#X connect 107 0 1000 0;
#X connect 108 0 1000 0;
#X connect 109 0 1000 0;
#X connect 110 0 1000 0;
#X connect 111 0 1000 0;
#X connect 112 0 1000 0;
#X connect 113 0 1000 0;
#X connect 114 0 1000 0;
#X connect 115 0 1000 0;
#X connect 116 0 1000 0;
#X connect 117 0 1000 0;
#X connect 118 0 1000 0;
#X connect 119 0 1000 0;
#X connect 120 0 1000 0;
#X connect 121 0 1000 0;
#X connect 122 0 1000 0;
#X connect 123 0 1000 0;
#X connect 124 0 1000 0;
#X connect 125 0 1000 0;
#X connect 126 0 1000 0;
#X connect 127 0 1000 0;
#X connect 128 0 1000 0;
#X connect 129 0 1000 0;
#X connect 130 0 1000 0;
#X connect 131 0 1000 0;
#X connect 132 0 1000 0;
#X connect 133 0 1000 0;
#X connect 134 0 1000 0;
#X connect 135 0 1000 0;
#X connect 136 0 1000 0;
#X connect 137 0 1000 0;
#X connect 138 0 1000 0;
#X connect 139 0 1000 0;
#X connect 140 0 1000 0;
#X connect 141 0 1000 0;
#X connect 142 0 1000 0;
#X connect 143 0 1000 0;
#X connect 144 0 1000 0;
#X connect 145 0 1000 0;
#X connect 146 0 1000 0;
#X connect 147 0 1000 0;
#X connect 148 0 1000 0;
#X connect 149 0 1000 0;
#X connect 150 0 1000 0;
#X connect 151 0 1000 0;
#X connect 152 0 1000 0;
#X connect 153 0 1000 0;
#X connect 154 0 1000 0;
#X connect 155 0 1000 0;
#X connect 156 0 1000 0;
#X connect 157 0 1000 0;
#X connect 158 0 1000 0;
#X connect 159 0 1000 0;
#X connect 160 0 1000 0;
#X connect 161 0 1000 0;
#X connect 162 0 1000 0;
#X connect 163 0 1000 0;
#X connect 164 0 1000 0;
#X connect 165 0 1000 0;
#X connect 166 0 1000 0;
#X connect 167 0 1000 0;
#X connect 168 0 1000 0;
#X connect 169 0 1000 0;
#X connect 170 0 1000 0;
#X connect 171 0 1000 0;
#X connect 172 0 1000 0;
#X connect 173 0 1000 0;
#X connect 174 0 1000 0;
#X connect 175 0 1000 0;
#X connect 176 0 1000 0;
#X connect 177 0 1000 0;
#X connect 178 0 1000 0;
#X connect 179 0 1000 0;
#X connect 180 0 1000 0;
#X connect 181 0 1000 0;
#X connect 182 0 1000 0;
#X connect 183 0 1000 0;
#X connect 184 0 1000 0;
#X connect 185 0 1000 0;
#X connect 186 0 1000 0;
#X connect 187 0 1000 0;
#X connect 188 0 1000 0;
#X connect 189 0 1000 0;
#X connect 190 0 1000 0;
#X connect 191 0 1000 0;
#X connect 192 0 1000 0;
#X connect 193 0 1000 0;
#X connect 194 0 1000 0;
#X connect 195 0 1000 0;
#X connect 196 0 1000 0;
#X connect 197 0 1000 0;
#X connect 198 0 1000 0;
#X connect 199 0 1000 0;
#X connect 200 0 1000 0;
#X connect 201 0 1000 0;
#X connect 202 0 1000 0;
#X connect 203 0 1000 0;
#X connect 204 0 1000 0;
#X connect 205 0 1000 0;
#X connect 206 0 1000 0;
#X connect 207 0 1000 0;
#X connect 208 0 1000 0;
#X connect 209 0 1000 0;
#X connect 210 0 1000 0;
#X connect 211 0 1000 0;
#X connect 212 0 1000 0;
#X connect 213 0 1000 0;
#X connect 214 0 1000 0;
#X connect 215 0 1000 0;
#X connect 216 0 1000 0;
#X connect 217 0 1000 0;
#X connect 218 0 1000 0;
#X connect 219 0 1000 0;
#X connect 220 0 1000 0;
#X connect 221 0 1000 0;
#X connect 222 0 1000 0;
#X connect 223 0 1000 0;
#X connect 224 0 1000 0;
#X connect 225 0 1000 0;
#X connect 226 0 1000 0;
#X connect 227 0 1000 0;
#X connect 228 0 1000 0;
#X connect 229 0 1000 0;
#X connect 230 0 1000 0;
#X connect 231 0 1000 0;
#X connect 232 0 1000 0;
#X connect 233 0 1000 0;
#X connect 234 0 1000 0;
#X connect 235 0 1000 0;
#X connect 236 0 1000 0;
#X connect 237 0 1000 0;
#X connect 238 0 1000 0;
#X connect 239 0 1000 0;
#X connect 240 0 1000 0;
#X connect 241 0 1000 0;
#X connect 242 0 1000 0;
#X connect 243 0 1000 0;
#X connect 244 0 1000 0;
#X connect 245 0 1000 0;
#X connect 246 0 1000 0;
#X connect 247 0 1000 0;
#X connect 248 0 1000 0;
#X connect 249 0 1000 0;
#X connect 250 0 1000 0;
#X connect 251 0 1000 0;
#X connect 252 0 1000 0;
#X connect 253 0 1000 0;
#X connect 254 0 1000 0;
#X connect 255 0 1000 0;
#X connect 256 0 1000 0;
#X connect 257 0 1000 0;
#X connect 258 0 1000 0;
#X connect 259 0 1000 0;
#X connect 260 0 1000 0;
#X connect 261 0 1000 0;
#X connect 262 0 1000 0;
#X connect 263 0 1000 0;
#X connect 264 0 1000 0;
#X connect 265 0 1000 0;
#X connect 266 0 1000 0;
#X connect 267 0 1000 0;
#X connect 268 0 1000 0;
#X connect 269 0 1000 0;
#X connect 270 0 1000 0;
#X connect 271 0 1000 0;
#X connect 272 0 1000 0;
#X connect 273 0 1000 0;
#X connect 274 0 1000 0;
#X connect 275 0 1000 0;
#X connect 276 0 1000 0;
#X connect 277 0 1000 0;
#X connect 278 0 1000 0;
#X connect 279 0 1000 0;
#X connect 280 0 1000 0;
#X connect 281 0 1000 0;
#X connect 282 0 1000 0;
#X connect 283 0 1000 0;
#X connect 284 0 1000 0;
#X connect 285 0 1000 0;
#X connect 286 0 1000 0;
#X connect 287 0 1000 0;
#X connect 288 0 1000 0;
#X connect 289 0 1000 0;
#X connect 290 0 1000 0;
#X connect 291 0 1000 0;
#X connect 292 0 1000 0;
#X connect 293 0 1000 0;
#X connect 294 0 1000 0;
#X connect 295 0 1000 0;
#X connect 296 0 1000 0;
#X connect 297 0 1000 0;
#X connect 298 0 1000 0;
#X connect 299 0 1000 0;
#X connect 300 0 1000 0;
#X connect 301 0 1000 0;
#X connect 302 0 1000 0;
#X connect 303 0 1000 0;
#X connect 304 0 1000 0;
#X connect 305 0 1000 0;
#X connect 306 0 1000 0;
#X connect 307 0 1000 0;
#X connect 308 0 1000 0;
#X connect 309 0 1000 0;
#X connect 310 0 1000 0;
#X connect 311 0 1000 0;
#X connect 312 0 1000 0;
#X connect 313 0 1000 0;
#X connect 314 0 1000 0;
#X connect 315 0 1000 0;
#X connect 316 0 1000 0;
#X connect 317 0 1000 0;
#X connect 318 0 1000 0;
#X connect 319 0 1000 0;
#X connect 320 0 1000 0;
#X connect 321 0 1000 0;
#X connect 322 0 1000 0;
#X connect 323 0 1000 0;
#X connect 324 0 1000 0;
#X connect 325 0 1000 0;
#X connect 326 0 1000 0;
#X connect 327 0 1000 0;
#X connect 328 0 1000 0;
#X connect 329 0 1000 0;
#X connect 330 0 1000 0;
#X connect 331 0 1000 0;
#X connect 332 0 1000 0;
#X connect 333 0 1000 0;
#X connect 334 0 1000 0;
#X connect 335 0 1000 0;
#X connect 336 0 1000 0;
#X connect 337 0 1000 0;
#X connect 338 0 1000 0;
#X connect 339 0 1000 0;
#X connect 340 0 1000 0;
#X connect 341 0 1000 0;
#X connect 342 0 1000 0;
#X connect 343 0 1000 0;
#X connect 344 0 1000 0;
#X connect 345 0 1000 0;
#X connect 346 0 1000 0;
#X connect 347 0 1000 0;
#X connect 348 0 1000 0;
#X connect 349 0 1000 0;
#X connect 350 0 1000 0;
#X connect 351 0 1000 0;
#X connect 352 0 1000 0;
#X connect 353 0 1000 0;
#X connect 354 0 1000 0;
#X connect 355 0 1000 0;
#X connect 356 0 1000 0;
#X connect 357 0 1000 0;
#X connect 358 0 1000 0;
#X connect 359 0 1000 0;
#X connect 360 0 1000 0;
#X connect 361 0 1000 0;
#X connect 362 0 1000 0;
#X connect 363 0 1000 0;
#X connect 364 0 1000 0;
#X connect 365 0 1000 0;
#X connect 366 0 1000 0;
#X connect 367 0 1000 0;
#X connect 368 0 1000 0;
#X connect 369 0 1000 0;
#X connect 370 0 1000 0;
#X connect 371 0 1000 0;
#X connect 372 0 1000 0;
#X connect 373 0 1000 0;
#X connect 374 0 1000 0;
#X connect 375 0 1000 0;
#X connect 376 0 1000 0;
#X connect 377 0 1000 0;
#X connect 378 0 1000 0;
#X connect 379 0 1000 0;
#X connect 380 0 1000 0;
#X connect 381 0 1000 0;
#X connect 382 0 1000 0;
#X connect 383 0 1000 0;
#X connect 384 0 1000 0;
#X connect 385 0 1000 0;
#X connect 386 0 1000 0;
#X connect 387 0 1000 0;
#X connect 388 0 1000 0;
#X connect 389 0 1000 0;
#X connect 390 0 1000 0;
#X connect 391 0 1000 0;
#X connect 392 0 1000 0;
#X connect 393 0 1000 0;
#X connect 394 0 1000 0;
#X connect 395 0 1000 0;
#X connect 396 0 1000 0;
#X connect 397 0 1000 0;
#X connect 398 0 1000 0;
#X connect 399 0 1000 0;
#X connect 400 0 1000 0;
#X connect 401 0 1000 0;
#X connect 402 0 1000 0;
#X connect 403 0 1000 0;
#X connect 404 0 1000 0;
#X connect 405 0 1000 0;
#X connect 406 0 1000 0;
#X connect 407 0 1000 0;
#X connect 408 0 1000 0;
#X connect 409 0 1000 0;
#X connect 410 0 1000 0;
#X connect 411 0 1000 0;
#X connect 412 0 1000 0;
#X connect 413 0 1000 0;
#X connect 414 0 1000 0;
#X connect 415 0 1000 0;
#X connect 416 0 1000 0;
#X connect 417 0 1000 0;
#X connect 418 0 1000 0;
#X connect 419 0 1000 0;
#X connect 420 0 1000 0;
#X connect 421 0 1000 0;
#X connect 422 0 1000 0;
#X connect 423 0 1000 0;
#X connect 424 0 1000 0;
#X connect 425 0 1000 0;
#X connect 426 0 1000 0;
#X connect 427 0 1000 0;
#X connect 428 0 1000 0;
#X connect 429 0 1000 0;
#X connect 430 0 1000 0;
#X connect 431 0 1000 0;
#X connect 432 0 1000 0;
#X connect 433 0 1000 0;
#X connect 434 0 1000 0;
#X connect 435 0 1000 0;
#X connect 436 0 1000 0;
#X connect 437 0 1000 0;
#X connect 438 0 1000 0;
#X connect 439 0 1000 0;
#X connect 440 0 1000 0;
#X connect 441 0 1000 0;
#X connect 442 0 1000 0;
#X connect 443 0 1000 0;
#X connect 444 0 1000 0;
#X connect 445 0 1000 0;
#X connect 446 0 1000 0;
#X connect 447 0 1000 0;
#X connect 448 0 1000 0;
#X connect 449 0 1000 0;
#X connect 450 0 1000 0;
#X connect 451 0 1000 0;
#X connect 452 0 1000 0;
#X connect 453 0 1000 0;
#X connect 454 0 1000 0;
#X connect 455 0 1000 0;
#X connect 456 0 1000 0;
#X connect 457 0 1000 0;
#X connect 458 0 1000 0;
#X connect 459 0 1000 0;
#X connect 460 0 1000 0;
#X connect 461 0 1000 0;
#X connect 462 0 1000 0;
#X connect 463 0 1000 0;
#X connect 464 0 1000 0;
#X connect 465 0 1000 0;
#X connect 466 0 1000 0;
#X connect 467 0 1000 0;
#X connect 468 0 1000 0;
#X connect 469 0 1000 0;
#X connect 470 0 1000 0;
#X connect 471 0 1000 0;
#X connect 472 0 1000 0;
#X connect 473 0 1000 0;
#X connect 474 0 1000 0;
#X connect 475 0 1000 0;
#X connect 476 0 1000 0;
#X connect 477 0 1000 0;
#X connect 478 0 1000 0;
#X connect 479 0 1000 0;
#X connect 480 0 1000 0;
#X connect 481 0 1000 0;
#X connect 482 0 1000 0;
#X connect 483 0 1000 0;
#X connect 484 0 1000 0;
#X connect 485 0 1000 0;
#X connect 486 0 1000 0;
#X connect 487 0 1000 0;
#X connect 488 0 1000 0;
#X connect 489 0 1000 0;
#X connect 490 0 1000 0;
#X connect 491 0 1000 0;
#X connect 492 0 1000 0;
#X connect 493 0 1000 0;
#X connect 494 0 1000 0;
#X connect 495 0 1000 0;
#X connect 496 0 1000 0;
#X connect 497 0 1000 0;
#X connect 498 0 1000 0;
#X connect 499 0 1000 0;
#X connect 500 0 1000 0;
#X connect 501 0 1000 0;
#X connect 502 0 1000 0;
#X connect 503 0 1000 0;
#X connect 504 0 1000 0;
#X connect 505 0 1000 0;
#X connect 506 0 1000 0;
#X connect 507 0 1000 0;
#X connect 508 0 1000 0;
#X connect 509 0 1000 0;
#X connect 510 0 1000 0;
#X connect 511 0 1000 0;
#X connect 512 0 1000 0;
#X connect 513 0 1000 0;
#X connect 514 0 1000 0;
#X connect 515 0 1000 0;
#X connect 516 0 1000 0;
#X connect 517 0 1000 0;
#X connect 518 0 1000 0;
#X connect 519 0 1000 0;
#X connect 520 0 1000 0;
#X connect 521 0 1000 0;
#X connect 522 0 1000 0;
#X connect 523 0 1000 0;
#X connect 524 0 1000 0;
#X connect 525 0 1000 0;
#X connect 526 0 1000 0;
#X connect 527 0 1000 0;
#X connect 528 0 1000 0;
#X connect 529 0 1000 0;
#X connect 530 0 1000 0;
#X connect 531 0 1000 0;
#X connect 532 0 1000 0;
#X connect 533 0 1000 0;
#X connect 534 0 1000 0;
#X connect 535 0 1000 0;
#X connect 536 0 1000 0;
#X connect 537 0 1000 0;
#X connect 538 0 1000 0;
#X connect 539 0 1000 0;
#X connect 540 0 1000 0;
#X connect 541 0 1000 0;
#X connect 542 0 1000 0;
#X connect 543 0 1000 0;
#X connect 544 0 1000 0;
#X connect 545 0 1000 0;
#X connect 546 0 1000 0;
#X connect 547 0 1000 0;
#X connect 548 0 1000 0;
#X connect 549 0 1000 0;
#X connect 550 0 1000 0;
#X connect 551 0 1000 0;
#X connect 552 0 1000 0;
#X connect 553 0 1000 0;
#X connect 554 0 1000 0;
#X connect 555 0 1000 0;
#X connect 556 0 1000 0;
#X connect 557 0 1000 0;
#X connect 558 0 1000 0;
#X connect 559 0 1000 0;
#X connect 560 0 1000 0;
#X connect 561 0 1000 0;
#X connect 562 0 1000 0;
#X connect 563 0 1000 0;
#X connect 564 0 1000 0;
#X connect 565 0 1000 0;
#X connect 566 0 1000 0;
#X connect 567 0 1000 0;
#X connect 568 0 1000 0;
#X connect 569 0 1000 0;
#X connect 570 0 1000 0;
#X connect 571 0 1000 0;
#X connect 572 0 1000 0;
#X connect 573 0 1000 0;
#X connect 574 0 1000 0;
#X connect 575 0 1000 0;
#X connect 576 0 1000 0;
#X connect 577 0 1000 0;
#X connect 578 0 1000 0;
#X connect 579 0 1000 0;
#X connect 580 0 1000 0;
#X connect 581 0 1000 0;
#X connect 582 0 1000 0;
#X connect 583 0 1000 0;
#X connect 584 0 1000 0;
#X connect 585 0 1000 0;
#X connect 586 0 1000 0;
#X connect 587 0 1000 0;
#X connect 588 0 1000 0;
#X connect 589 0 1000 0;
#X connect 590 0 1000 0;
#X connect 591 0 1000 0;
#X connect 592 0 1000 0;
#X connect 593 0 1000 0;
#X connect 594 0 1000 0;
#X connect 595 0 1000 0;
#X connect 596 0 1000 0;
#X connect 597 0 1000 0;
#X connect 598 0 1000 0;
#X connect 599 0 1000 0;
#X connect 600 0 1000 0;
#X connect 601 0 1000 0;
#X connect 602 0 1000 0;
#X connect 603 0 1000 0;
#X connect 604 0 1000 0;
#X connect 605 0 1000 0;
#X connect 606 0 1000 0;
#X connect 607 0 1000 0;
#X connect 608 0 1000 0;
#X connect 609 0 1000 0;
#X connect 610 0 1000 0;
#X connect 611 0 1000 0;
#X connect 612 0 1000 0;
#X connect 613 0 1000 0;
#X connect 614 0 1000 0;
#X connect 615 0 1000 0;
#X connect 616 0 1000 0;
#X connect 617 0 1000 0;
#X connect 618 0 1000 0;
#X connect 619 0 1000 0;
#X connect 620 0 1000 0;
#X connect 621 0 1000 0;
#X connect 622 0 1000 0;
#X connect 623 0 1000 0;
#X connect 624 0 1000 0;
#X connect 625 0 1000 0;
#X connect 626 0 1000 0;
#X connect 627 0 1000 0;
#X connect 628 0 1000 0;
#X connect 629 0 1000 0;
#X connect 630 0 1000 0;
#X connect 631 0 1000 0;
#X connect 632 0 1000 0;
#X connect 633 0 1000 0;
#X connect 634 0 1000 0;
#X connect 635 0 1000 0;
#X connect 636 0 1000 0;
#X connect 637 0 1000 0;
#X connect 638 0 1000 0;
#X connect 639 0 1000 0;
#X connect 640 0 1000 0;
#X connect 641 0 1000 0;
#X connect 642 0 1000 0;
#X connect 643 0 1000 0;
#X connect 644 0 1000 0;
#X connect 645 0 1000 0;
#X connect 646 0 1000 0;
#X connect 647 0 1000 0;
#X connect 648 0 1000 0;
#X connect 649 0 1000 0;
#X connect 650 0 1000 0;
#X connect 651 0 1000 0;
#X connect 652 0 1000 0;
#X connect 653 0 1000 0;
#X connect 654 0 1000 0;
#X connect 655 0 1000 0;
#X connect 656 0 1000 0;
#X connect 657 0 1000 0;
#X connect 658 0 1000 0;
#X connect 659 0 1000 0;
#X connect 660 0 1000 0;
#X connect 661 0 1000 0;
#X connect 662 0 1000 0;
#X connect 663 0 1000 0;
#X connect 664 0 1000 0;
#X connect 665 0 1000 0;
#X connect 666 0 1000 0;
#X connect 667 0 1000 0;
#X connect 668 0 1000 0;
#X connect 669 0 1000 0;
#X connect 670 0 1000 0;
#X connect 671 0 1000 0;
#X connect 672 0 1000 0;
#X connect 673 0 1000 0;
#X connect 674 0 1000 0;
#X connect 675 0 1000 0;
#X connect 676 0 1000 0;
#X connect 677 0 1000 0;
#X connect 678 0 1000 0;
#X connect 679 0 1000 0;
#X connect 680 0 1000 0;
#X connect 681 0 1000 0;
#X connect 682 0 1000 0;
#X connect 683 0 1000 0;
#X connect 684 0 1000 0;
#X connect 685 0 1000 0;
#X connect 686 0 1000 0;
#X connect 687 0 1000 0;
#X connect 688 0 1000 0;
#X connect 689 0 1000 0;
#X connect 690 0 1000 0;
#X connect 691 0 1000 0;
#X connect 692 0 1000 0;
#X connect 693 0 1000 0;
#X connect 694 0 1000 0;
#X connect 695 0 1000 0;
#X connect 696 0 1000 0;
#X connect 697 0 1000 0;
#X connect 698 0 1000 0;
#X connect 699 0 1000 0;
#X connect 700 0 1000 0;
#X connect 701 0 1000 0;
#X connect 702 0 1000 0;
#X connect 703 0 1000 0;
#X connect 704 0 1000 0;
#X connect 705 0 1000 0;
#X connect 706 0 1000 0;
#X connect 707 0 1000 0;
#X connect 708 0 1000 0;
#X connect 709 0 1000 0;
#X connect 710 0 1000 0;
#X connect 711 0 1000 0;
#X connect 712 0 1000 0;
#X connect 713 0 1000 0;
#X connect 714 0 1000 0;
#X connect 715 0 1000 0;
#X connect 716 0 1000 0;
#X connect 717 0 1000 0;
#X connect 718 0 1000 0;
#X connect 719 0 1000 0;
#X connect 720 0 1000 0;
#X connect 721 0 1000 0;
#X connect 722 0 1000 0;
#X connect 723 0 1000 0;
#X connect 724 0 1000 0;
#X connect 725 0 1000 0;
#X connect 726 0 1000 0;
#X connect 727 0 1000 0;
#X connect 728 0 1000 0;
#X connect 729 0 1000 0;
#X connect 730 0 1000 0;
#X connect 731 0 1000 0;
#X connect 732 0 1000 0;
#X connect 733 0 1000 0;
#X connect 734 0 1000 0;
#X connect 735 0 1000 0;
#X connect 736 0 1000 0;
#X connect 737 0 1000 0;
#X connect 738 0 1000 0;
#X connect 739 0 1000 0;
#X connect 740 0 1000 0;
#X connect 741 0 1000 0;
#X connect 742 0 1000 0;
#X connect 743 0 1000 0;
#X connect 744 0 1000 0;
#X connect 745 0 1000 0;
#X connect 746 0 1000 0;
#X connect 747 0 1000 0;
#X connect 748 0 1000 0;
#X connect 749 0 1000 0;
#X connect 750 0 1000 0;
#X connect 751 0 1000 0;
#X connect 752 0 1000 0;
#X connect 753 0 1000 0;
#X connect 754 0 1000 0;
#X connect 755 0 1000 0;
#X connect 756 0 1000 0;
#X connect 757 0 1000 0;
#X connect 758 0 1000 0;
#X connect 759 0 1000 0;
#X connect 760 0 1000 0;
#X connect 761 0 1000 0;
#X connect 762 0 1000 0;
#X connect 763 0 1000 0;
#X connect 764 0 1000 0;
#X connect 765 0 1000 0;
#X connect 766 0 1000 0;
#X connect 767 0 1000 0;
#X connect 768 0 1000 0;
#X connect 769 0 1000 0;
#X connect 770 0 1000 0;
#X connect 771 0 1000 0;
#X connect 772 0 1000 0;
#X connect 773 0 1000 0;
#X connect 774 0 1000 0;
#X connect 775 0 1000 0;
#X connect 776 0 1000 0;
#X connect 777 0 1000 0;
#X connect 778 0 1000 0;
#X connect 779 0 1000 0;
#X connect 780 0 1000 0;
#X connect 781 0 1000 0;
#X connect 782 0 1000 0;
#X connect 783 0 1000 0;
#X connect 784 0 1000 0;
#X connect 785 0 1000 0;
#X connect 786 0 1000 0;
#X connect 787 0 1000 0;
#X connect 788 0 1000 0;
#X connect 789 0 1000 0;
#X connect 790 0 1000 0;
#X connect 791 0 1000 0;
#X connect 792 0 1000 0;
#X connect 793 0 1000 0;
#X connect 794 0 1000 0;
#X connect 795 0 1000 0;
#X connect 796 0 1000 0;
#X connect 797 0 1000 0;
#X connect 798 0 1000 0;
#X connect 799 0 1000 0;
#X connect 800 0 1000 0;
#X connect 801 0 1000 0;
#X connect 802 0 1000 0;
#X connect 803 0 1000 0;
#X connect 804 0 1000 0;
#X connect 805 0 1000 0;
#X connect 806 0 1000 0;
#X connect 807 0 1000 0;
#X connect 808 0 1000 0;
#X connect 809 0 1000 0;
#X connect 810 0 1000 0;
#X connect 811 0 1000 0;
#X connect 812 0 1000 0;
#X connect 813 0 1000 0;
#X connect 814 0 1000 0;
#X connect 815 0 1000 0;
#X connect 816 0 1000 0;
#X connect 817 0 1000 0;
#X connect 818 0 1000 0;
#X connect 819 0 1000 0;
#X connect 820 0 1000 0;
#X connect 821 0 1000 0;
#X connect 822 0 1000 0;
#X connect 823 0 1000 0;
#X connect 824 0 1000 0;
#X connect 825 0 1000 0;
#X connect 826 0 1000 0;
#X connect 827 0 1000 0;
#X connect 828 0 1000 0;
#X connect 829 0 1000 0;
#X connect 830 0 1000 0;
#X connect 831 0 1000 0;
#X connect 832 0 1000 0;
#X connect 833 0 1000 0;
#X connect 834 0 1000 0;
#X connect 835 0 1000 0;
#X connect 836 0 1000 0;
#X connect 837 0 1000 0;
#X connect 838 0 1000 0;
#X connect 839 0 1000 0;
#X connect 840 0 1000 0;
#X connect 841 0 1000 0;
#X connect 842 0 1000 0;
#X connect 843 0 1000 0;
#X connect 844 0 1000 0;
#X connect 845 0 1000 0;
#X connect 846 0 1000 0;
#X connect 847 0 1000 0;
#X connect 848 0 1000 0;
#X connect 849 0 1000 0;
#X connect 850 0 1000 0;
#X connect 851 0 1000 0;
#X connect 852 0 1000 0;
#X connect 853 0 1000 0;
#X connect 854 0 1000 0;
#X connect 855 0 1000 0;
#X connect 856 0 1000 0;
#X connect 857 0 1000 0;
#X connect 858 0 1000 0;
#X connect 859 0 1000 0;
#X connect 860 0 1000 0;
#X connect 861 0 1000 0;
#X connect 862 0 1000 0;
#X connect 863 0 1000 0;
#X connect 864 0 1000 0;
#X connect 865 0 1000 0;
#X connect 866 0 1000 0;
#X connect 867 0 1000 0;
#X connect 868 0 1000 0;
#X connect 869 0 1000 0;
#X connect 870 0 1000 0;
#X connect 871 0 1000 0;
#X connect 872 0 1000 0;
#X connect 873 0 1000 0;
#X connect 874 0 1000 0;
#X connect 875 0 1000 0;
#X connect 876 0 1000 0;
#X connect 877 0 1000 0;
#X connect 878 0 1000 0;
#X connect 879 0 1000 0;
#X connect 880 0 1000 0;
#X connect 881 0 1000 0;
#X connect 882 0 1000 0;
#X connect 883 0 1000 0;
#X connect 884 0 1000 0;
#X connect 885 0 1000 0;
#X connect 886 0 1000 0;
#X connect 887 0 1000 0;
#X connect 888 0 1000 0;
#X connect 889 0 1000 0;
#X connect 890 0 1000 0;
#X connect 891 0 1000 0;
#X connect 892 0 1000 0;
#X connect 893 0 1000 0;
#X connect 894 0 1000 0;
#X connect 895 0 1000 0;
#X connect 896 0 1000 0;
#X connect 897 0 1000 0;
#X connect 898 0 1000 0;
#X connect 899 0 1000 0;
#X connect 900 0 1000 0;
#X connect 901 0 1000 0;
#X connect 902 0 1000 0;
#X connect 903 0 1000 0;
#X connect 904 0 1000 0;
#X connect 905 0 1000 0;
#X connect 906 0 1000 0;
#X connect 907 0 1000 0;
#X connect 908 0 1000 0;
#X connect 909 0 1000 0;
#X connect 910 0 1000 0;
#X connect 911 0 1000 0;
#X connect 912 0 1000 0;
#X connect 913 0 1000 0;
#X connect 914 0 1000 0;
#X connect 915 0 1000 0;
#X connect 916 0 1000 0;
#X connect 917 0 1000 0;
#X connect 918 0 1000 0;
#X connect 919 0 1000 0;
#X connect 920 0 1000 0;
#X connect 921 0 1000 0;
#X connect 922 0 1000 0;
#X connect 923 0 1000 0;
#X connect 924 0 1000 0;
#X connect 925 0 1000 0;
#X connect 926 0 1000 0;
#X connect 927 0 1000 0;
#X connect 928 0 1000 0;
#X connect 929 0 1000 0;
#X connect 930 0 1000 0;
#X connect 931 0 1000 0;
#X connect 932 0 1000 0;
#X connect 933 0 1000 0;
#X connect 934 0 1000 0;
#X connect 935 0 1000 0;
#X connect 936 0 1000 0;
#X connect 937 0 1000 0;
#X connect 938 0 1000 0;
#X connect 939 0 1000 0;
#X connect 940 0 1000 0;
#X connect 941 0 1000 0;
#X connect 942 0 1000 0;
#X connect 943 0 1000 0;
#X connect 944 0 1000 0;
#X connect 945 0 1000 0;
#X connect 946 0 1000 0;
#X connect 947 0 1000 0;
#X connect 948 0 1000 0;
#X connect 949 0 1000 0;
#X connect 950 0 1000 0;
#X connect 951 0 1000 0;
#X connect 952 0 1000 0;
#X connect 953 0 1000 0;
#X connect 954 0 1000 0;
#X connect 955 0 1000 0;
#X connect 956 0 1000 0;
#X connect 957 0 1000 0;
#X connect 958 0 1000 0;
#X connect 959 0 1000 0;
#X connect 960 0 1000 0;
#X connect 961 0 1000 0;
#X connect 962 0 1000 0;
#X connect 963 0 1000 0;
#X connect 964 0 1000 0;
#X connect 965 0 1000 0;
#X connect 966 0 1000 0;
#X connect 967 0 1000 0;
#X connect 968 0 1000 0;
#X connect 969 0 1000 0;
#X connect 970 0 1000 0;
#X connect 971 0 1000 0;
#X connect 972 0 1000 0;
#X connect 973 0 1000 0;
#X connect 974 0 1000 0;
#X connect 975 0 1000 0;
#X connect 976 0 1000 0;
#X connect 977 0 1000 0;
#X connect 978 0 1000 0;
#X connect 979 0 1000 0;
#X connect 980 0 1000 0;
#X connect 981 0 1000 0;
#X connect 982 0 1000 0;
#X connect 983 0 1000 0;
#X connect 984 0 1000 0;
#X connect 985 0 1000 0;
#X connect 986 0 1000 0;
#X connect 987 0 1000 0;
#X connect 988 0 1000 0;
#X connect 989 0 1000 0;
#X connect 990 0 1000 0;
#X connect 991 0 1000 0;
#X connect 992 0 1000 0;
#X connect 993 0 1000 0;
#X connect 994 0 1000 0;
#X connect 995 0 1000 0;
#X connect 996 0 1000 0;
#X connect 997 0 1000 0;
#X connect 998 0 1000 0;
#X connect 999 0 1000 0;
#X connect 1000 0 1001 0;
#X connect 1000 0 1001 1;
#X restore 107 96 pd oscbank1000 ;
