#N canvas 488 120 450 300 10;
#N canvas 0 22 450 300 oscbank10 0;
#X obj 0 0 osc~ 666;
#X obj 60 0 osc~ 666;
#X obj 120 0 osc~ 666;
#X obj 180 0 osc~ 666;
#X obj 240 0 osc~ 666;
#X obj 300 0 osc~ 666;
#X obj 360 0 osc~ 666;
#X obj 420 0 osc~ 666;
#X obj 480 0 osc~ 666;
#X obj 540 0 osc~ 666;
#X obj 0 100 *~ 0.100000;
#X obj 0 130 dac~ 1 2;
#X connect 0 0 10 0;
#X connect 1 0 10 0;
#X connect 2 0 10 0;
#X connect 3 0 10 0;
#X connect 4 0 10 0;
#X connect 5 0 10 0;
#X connect 6 0 10 0;
#X connect 7 0 10 0;
#X connect 8 0 10 0;
#X connect 9 0 10 0;
#X connect 10 0 11 0;
#X connect 10 0 11 1;
#X restore 107 96 pd oscbank10 ;
