#N canvas 0 63 960 1017 12;
#X obj 464 157 cnv 15 216 270 empty empty empty 20 12 0 14 -233017
-66577 0;
#X obj 136 453 cnv 15 680 430 empty empty empty 20 12 0 14 -233017
-66577 0;
#X obj 525 760 hsl 128 15 0 127 0 0 empty empty level -2 -8 0 10 -262144
-1 -1 0 1;
#X obj 458 829 dac~ 1 2;
#X obj 459 784 *~ 1;
#X obj 558 554 adc~ 3 4 5 6, f 13;
#X obj 335 700 pitchshift~;
#X obj 442 703 pitchshift~;
#X obj 538 703 pitchshift~;
#X obj 631 703 pitchshift~;
#X obj 307 512 loadbang;
#X text 212 552 Pitch Range;
#X msg 307 552 3;
#X text 675 830 Pitch Shifting;
#X text 571 531 4 pot;
#X obj 542 75 adc~ 11;
#X text 539 15 Push button Input;
#X obj 613 48 loadbang;
#X obj 541 108 snapshot~;
#X obj 352 402 adc~ 1 2;
#X obj 425 557 sampler~;
#X obj 180 239 s bela_setDigital @hv_param;
#X obj 180 180 loadbang;
#X msg 180 201 in 11 ~;
#X text 178 155 set digital pin as input;
#X obj 613 77 metro 1;
#X floatatom 539 191 5 0 0 0 - - -, f 5;
#X floatatom 482 184 5 0 0 0 - - -, f 5;
#X obj 562 224 !=;
#X obj 562 253 tgl 15 0 empty empty empty 17 7 0 10 -262144 -1 -1 0
1;
#X text 521 163 Edge Detector;
#X floatatom 619 403 5 0 0 0 - - -, f 5;
#X obj 564 372 +;
#X floatatom 562 277 5 0 0 0 - - -, f 5;
#X obj 562 305 route 1;
#X obj 564 401 % 2;
#X msg 562 334 1;
#X obj 269 827 dac~ 27 28 29 30;
#X text 285 854 Scope;
#X text 625 103 Sorry \, I couldn't figure out how to do this without
snapshot! Kept sending constant bangs to the sampler..., f 38;
#X connect 2 0 4 1;
#X connect 4 0 3 0;
#X connect 4 0 3 1;
#X connect 5 0 6 1;
#X connect 5 1 7 1;
#X connect 5 2 8 1;
#X connect 5 3 9 1;
#X connect 6 0 4 0;
#X connect 6 0 37 0;
#X connect 7 0 4 0;
#X connect 7 0 37 1;
#X connect 8 0 4 0;
#X connect 8 0 37 2;
#X connect 9 0 4 0;
#X connect 9 0 37 3;
#X connect 10 0 12 0;
#X connect 12 0 6 2;
#X connect 12 0 7 2;
#X connect 12 0 8 2;
#X connect 12 0 9 2;
#X connect 15 0 18 0;
#X connect 17 0 25 0;
#X connect 18 0 26 0;
#X connect 19 0 20 0;
#X connect 19 1 20 0;
#X connect 20 0 6 0;
#X connect 20 0 7 0;
#X connect 20 0 8 0;
#X connect 20 0 9 0;
#X connect 22 0 23 0;
#X connect 23 0 21 0;
#X connect 25 0 18 0;
#X connect 26 0 28 0;
#X connect 26 0 27 0;
#X connect 27 0 28 1;
#X connect 28 0 29 0;
#X connect 29 0 33 0;
#X connect 31 0 32 1;
#X connect 31 0 20 1;
#X connect 32 0 35 0;
#X connect 33 0 34 0;
#X connect 34 0 36 0;
#X connect 35 0 31 0;
#X connect 36 0 32 0;
