#N canvas 480 63 960 994 12;
#X obj 226 427 cnv 15 231 128 empty empty empty 20 12 0 14 -233017
-66577 0;
#X obj 444 291 phasor~;
#X obj 244 372 +~ 0.5;
#X obj 244 401 wrap~;
#X obj 244 430 -~ 0.5;
#X obj 244 459 *~ 0.5;
#X obj 244 488 cos~;
#X obj 300 532 *~;
#X obj 345 435 *~ 50;
#X obj 345 464 vd~ \$0-audio;
#X obj 537 425 cnv 15 231 128 empty empty empty 20 12 0 14 -233017
-66577 0;
#X obj 555 428 -~ 0.5;
#X obj 555 457 *~ 0.5;
#X obj 555 486 cos~;
#X obj 611 530 *~;
#X obj 656 433 *~ 50;
#X obj 656 462 vd~ \$0-audio;
#X text 666 518 Playback 2;
#X text 355 520 Playback 1;
#X obj 504 607 +~;
#X obj 247 120 delwrite~ \$0-audio 200;
#X obj 443 52 loadbang;
#X obj 444 233 -~ 1;
#X obj 444 262 *~ 20;
#X msg 443 81 1;
#X obj 247 82 inlet~;
#X obj 504 636 outlet~;
#X obj 524 83 inlet~;
#X text 524 54 Pitch Shift In;
#X text 249 51 Signal Input;
#X obj 765 77 inlet;
#X obj 736 215 *~;
#X obj 754 181 -~;
#X obj 736 244 +~;
#X text 727 49 Pitch Range;
#X obj 742 107 expr 1/\$1;
#X floatatom 794 138 5 0 0 0 - - -, f 5;
#X floatatom 742 136 5 0 0 0 - - -, f 5;
#X text 668 135 Min Pitch;
#X text 840 134 Max Pitch;
#X text 17 7 Heavily inspired by: http://www.katjaas.nl/pitchshift/pitchshift.html
;
#X connect 1 0 2 0;
#X connect 1 0 8 0;
#X connect 1 0 11 0;
#X connect 1 0 15 0;
#X connect 2 0 3 0;
#X connect 3 0 4 0;
#X connect 4 0 5 0;
#X connect 5 0 6 0;
#X connect 6 0 7 0;
#X connect 7 0 19 0;
#X connect 8 0 9 0;
#X connect 9 0 7 1;
#X connect 11 0 12 0;
#X connect 12 0 13 0;
#X connect 13 0 14 0;
#X connect 14 0 19 1;
#X connect 15 0 16 0;
#X connect 16 0 14 1;
#X connect 19 0 26 0;
#X connect 21 0 24 0;
#X connect 22 0 23 0;
#X connect 23 0 1 0;
#X connect 24 0 22 0;
#X connect 25 0 20 0;
#X connect 27 0 31 0;
#X connect 30 0 35 0;
#X connect 30 0 36 0;
#X connect 31 0 33 0;
#X connect 32 0 31 1;
#X connect 33 0 22 0;
#X connect 35 0 37 0;
#X connect 36 0 32 0;
#X connect 37 0 32 1;
#X connect 37 0 33 1;
