#N canvas 960 63 960 994 10;
#X obj 171 337 dac~ 1 2;
#X obj 171 229 adc~ 3 4;
#X obj 171 254 *~ 400;
#X obj 218 255 *~ 20;
#N canvas 735 426 450 300 additive~ 0;
#X obj 97 -396 inlet~;
#X obj 320 -398 inlet~;
#X obj 97 -175 osc~ 0;
#X obj 196 -175 osc~ 0;
#X obj 245 -175 osc~ 0;
#X obj 294 -175 osc~ 0;
#X obj 344 -175 osc~ 0;
#X obj 147 -175 osc~ 0;
#X obj 199 -101 *~ 0.1;
#X obj 359 -227 +~;
#X obj 309 -247 +~;
#X obj 260 -269 +~;
#X obj 211 -288 +~;
#X obj 162 -308 +~ 1;
#X obj 344 -202 *~;
#X obj 294 -225 *~;
#X obj 245 -244 *~;
#X obj 196 -262 *~;
#X obj 147 -283 *~;
#X obj 199 -22 outlet~;
#X connect 0 0 14 0;
#X connect 0 0 15 1;
#X connect 0 0 15 0;
#X connect 0 0 16 0;
#X connect 0 0 17 0;
#X connect 0 0 18 0;
#X connect 0 0 2 0;
#X connect 1 0 9 1;
#X connect 1 0 10 1;
#X connect 1 0 11 1;
#X connect 1 0 12 1;
#X connect 1 0 13 0;
#X connect 2 0 8 0;
#X connect 3 0 8 0;
#X connect 4 0 8 0;
#X connect 5 0 8 0;
#X connect 6 0 8 0;
#X connect 7 0 8 0;
#X connect 8 0 19 0;
#X connect 9 0 14 1;
#X connect 10 0 9 0;
#X connect 10 0 15 1;
#X connect 11 0 10 0;
#X connect 11 0 16 1;
#X connect 12 0 11 0;
#X connect 12 0 17 1;
#X connect 13 0 12 0;
#X connect 13 0 18 1;
#X connect 14 0 6 0;
#X connect 15 0 5 0;
#X connect 16 0 4 0;
#X connect 17 0 3 0;
#X connect 18 0 7 0;
#X restore 170 299 pd additive~;
#X connect 1 0 2 0;
#X connect 1 1 3 0;
#X connect 2 0 4 0;
#X connect 3 0 4 1;
#X connect 4 0 0 0;
