#N canvas 0 22 450 300 10;
#N canvas 658 247 825 634 additive~ 0;
#X obj 121 70 inlet~;
#X obj 344 68 inlet~;
#X obj 121 291 osc~ 0;
#X obj 220 291 osc~ 0;
#X obj 269 291 osc~ 0;
#X obj 318 291 osc~ 0;
#X obj 368 291 osc~ 0;
#X obj 171 291 osc~ 0;
#X obj 223 365 *~ 0.1;
#X obj 383 239 +~;
#X obj 333 219 +~;
#X obj 284 197 +~;
#X obj 235 178 +~;
#X obj 186 158 +~ 1;
#X obj 368 264 *~;
#X obj 318 241 *~;
#X obj 269 222 *~;
#X obj 220 204 *~;
#X obj 171 183 *~;
#X obj 223 444 outlet~;
#X connect 0 0 14 0;
#X connect 0 0 15 1;
#X connect 0 0 15 0;
#X connect 0 0 16 0;
#X connect 0 0 17 0;
#X connect 0 0 18 0;
#X connect 0 0 2 0;
#X connect 1 0 9 1;
#X connect 1 0 10 1;
#X connect 1 0 11 1;
#X connect 1 0 12 1;
#X connect 1 0 13 0;
#X connect 2 0 8 0;
#X connect 3 0 8 0;
#X connect 4 0 8 0;
#X connect 5 0 8 0;
#X connect 6 0 8 0;
#X connect 7 0 8 0;
#X connect 8 0 19 0;
#X connect 9 0 14 1;
#X connect 10 0 9 0;
#X connect 10 0 15 1;
#X connect 11 0 10 0;
#X connect 11 0 16 1;
#X connect 12 0 11 0;
#X connect 12 0 17 1;
#X connect 13 0 12 0;
#X connect 13 0 18 1;
#X connect 14 0 6 0;
#X connect 15 0 5 0;
#X connect 16 0 4 0;
#X connect 17 0 3 0;
#X connect 18 0 7 0;
#X restore 142 121 pd additive~;
