#N canvas 0 63 960 994 12;
#X obj 356 179 adc~ 1 2;
#X obj 454 179 adc~ 3;
#X obj 23 216 s bela_setDigital @hv_param;
#X obj 23 163 loadbang;
#X msg 23 184 in 11 ~;
#X obj 234 168 adc~ 11;
#X obj 358 435 *~;
#X obj 440 435 *~;
#X obj 234 277 expr~ -1*$v1+1;
#X text 356 156 audio in;
#X text 450 154 analog in;
#X text 225 141 digital in;
#X text 21 138 set digital pin as input;
#X obj 580 370 *~;
#X obj 454 347 *~;
#X obj 595 321 loadbang;
#X text 595 302 feedback;
#X text 718 413 max delay time;
#X obj 580 431 delwrite~ victor_delay 2000;
#X obj 454 251 vd~ victor_delay;
#X obj 356 214 +~;
#X msg 595 342 0.8;
#X obj 469 292 loadbang;
#X msg 469 313 0.8;
#X obj 356 235 /~ 4;
#X text 469 273 delay level;
#X obj 454 223 *~ 2000;
#X obj 439 391 +~;
#X obj 551 170 loadbang;
#X msg 551 191 500;
#X obj 358 588 dac~ 1 2;
#X obj 585 226 dac~ 27;
#X obj 454 201 lop~ 1;
#X connect 0 0 20 0;
#X connect 0 1 20 1;
#X connect 1 0 32 0;
#X connect 3 0 4 0;
#X connect 4 0 2 0;
#X connect 5 0 8 0;
#X connect 5 0 7 1;
#X connect 6 0 30 0;
#X connect 6 0 30 1;
#X connect 7 0 30 0;
#X connect 7 0 30 1;
#X connect 8 0 6 1;
#X connect 13 0 18 0;
#X connect 14 0 27 1;
#X connect 15 0 21 0;
#X connect 19 0 14 0;
#X connect 19 0 13 0;
#X connect 20 0 24 0;
#X connect 21 0 13 1;
#X connect 22 0 23 0;
#X connect 23 0 14 1;
#X connect 24 0 6 0;
#X connect 24 0 18 0;
#X connect 24 0 27 0;
#X connect 26 0 19 0;
#X connect 27 0 7 0;
#X connect 28 0 29 0;
#X connect 29 0 19 0;
#X connect 32 0 26 0;
#X connect 32 0 31 0;
