#N canvas 539 406 450 300 10;
#X obj 26 116 s bela_setDigital @hv_param;
#X obj 26 63 loadbang;
#X msg 26 85 out 12 ~;
#X obj 249 81 adc~ 1 2;
#X text 249 58 audio in;
#X obj 314 116 +~;
#X obj 314 158 lop~ 1;
#X obj 249 223 dac~ 1 2 12 27;
#X obj 314 137 *~ 200;
#X text 24 38 set digital pin as output;
#X connect 1 0 2 0;
#X connect 2 0 0 0;
#X connect 3 0 5 0;
#X connect 3 0 7 0;
#X connect 3 1 5 1;
#X connect 3 1 7 1;
#X connect 5 0 8 0;
#X connect 6 0 7 2;
#X connect 6 0 7 3;
#X connect 8 0 6 0;
