#N canvas 411 297 658 309 10;
#X obj 70 54 adc~ 1 2;
#X obj 70 250 dac~ 1 2;
#X obj 163 54 adc~ 3;
#X obj 163 99 expr~ $v1*4000+20;
#X obj 122 145 vcf~ 4;
#X obj 167 145 vcf~ 4;
#X obj 483 115 s bela_setDigital @hv_param;
#X obj 483 56 loadbang;
#X msg 483 77 in 11 ~;
#X obj 354 58 adc~ 11;
#X obj 31 202 *~;
#X obj 66 203 *~;
#X obj 113 202 *~;
#X obj 148 203 *~;
#X obj 354 167 expr~ -1*$v1+1;
#X obj 391 97 metro 200;
#X obj 391 118 snapshot~;
#X obj 391 139 print;
#X text 70 31 audio in;
#X text 159 29 analog in;
#X text 345 31 digital in;
#X text 481 31 set digital pin as input;
#X connect 0 0 4 0;
#X connect 0 0 10 0;
#X connect 0 1 5 0;
#X connect 0 1 11 0;
#X connect 2 0 3 0;
#X connect 3 0 5 1;
#X connect 3 0 4 1;
#X connect 4 0 12 0;
#X connect 5 0 13 0;
#X connect 7 0 8 0;
#X connect 7 0 15 0;
#X connect 8 0 6 0;
#X connect 9 0 14 0;
#X connect 9 0 16 0;
#X connect 9 0 12 1;
#X connect 9 0 13 1;
#X connect 10 0 1 0;
#X connect 11 0 1 1;
#X connect 12 0 1 0;
#X connect 13 0 1 1;
#X connect 14 0 10 1;
#X connect 14 0 11 1;
#X connect 15 0 16 0;
#X connect 16 0 17 0;
