#N canvas 490 302 762 572 10;
#X obj 124 359 dac~;
#X obj 331 60 soundfiler;
#N canvas 0 22 450 278 (subpatch) 0;
#X array sound0 147000 float 2;
#X coords 0 1 147000 -1 200 140 1;
#X restore 325 131 graph;
#X obj 331 9 loadbang;
#X floatatom 330 79 10 0 0 0 - - -;
#X obj 66 223 *~;
#X obj 330 96 s sampleNum;
#X obj 83 202 r sampleNum;
#X obj 64 169 lop~ 1;
#X msg 331 34 read -resize 07b01gro072.wav sound0;
#X obj 114 105 adc~ 3 4;
#X obj 67 249 tabread4~ sound0;
#X obj 202 202 osc~;
#X obj 171 146 *~ 4000;
#X obj 202 223 *~ 0.3;
#X connect 1 0 4 0;
#X connect 3 0 9 0;
#X connect 4 0 6 0;
#X connect 5 0 11 0;
#X connect 7 0 5 1;
#X connect 8 0 5 0;
#X connect 9 0 1 0;
#X connect 10 0 8 0;
#X connect 10 1 13 0;
#X connect 11 0 0 0;
#X connect 11 0 0 1;
#X connect 12 0 14 0;
#X connect 13 0 12 0;
#X connect 14 0 0 0;
#X connect 14 0 0 1;
