#N canvas 960 63 960 994 10;
#X obj 132 255 dac~ 1 2;
#X text 17 41 https://puredata.info/docs/tutorials/pd-refcard;
#X obj 87 70 hsl 128 15 0 127 0 0 empty empty empty -2 -8 0 10 -262144
-1 -1 0 1;
#X obj 84 90 / 127;
#X obj 84 111 * 200;
#X obj 300 72 hsl 128 15 0 127 0 0 empty empty empty -2 -8 0 10 -262144
-1 -1 0 1;
#X obj 297 92 / 127;
#X obj 297 113 * 20;
#N canvas 0 63 960 994 additive 1;
#X floatatom 269 173 5 0 0 0 - - -, f 5;
#X obj 269 355 osc~ 0;
#X obj 368 355 osc~ 0;
#X obj 368 251 *;
#X obj 417 355 osc~ 0;
#X obj 417 269 *;
#X obj 466 355 osc~ 0;
#X obj 466 288 *;
#X obj 516 355 osc~ 0;
#X obj 516 311 *;
#X obj 319 355 osc~ 0;
#X obj 319 230 *;
#X floatatom 482 174 5 0 0 0 - - -, f 5;
#X obj 340 183 bng 15 250 50 0 empty empty empty 17 7 0 10 -262144
-1 -1;
#X obj 383 225 +;
#X obj 432 244 +;
#X obj 481 266 +;
#X obj 531 286 +;
#X floatatom 319 332 5 0 0 0 - - -, f 5;
#X floatatom 368 332 5 0 0 0 - - -, f 5;
#X floatatom 417 332 5 0 0 0 - - -, f 5;
#X floatatom 466 332 5 0 0 0 - - -, f 5;
#X floatatom 516 331 5 0 0 0 - - -, f 5;
#X obj 334 205 + 1;
#X obj 371 429 *~ 0.1;
#X obj 268 126 inlet;
#X obj 485 125 inlet;
#X obj 370 472 outlet~;
#X connect 0 0 1 0;
#X connect 0 0 9 0;
#X connect 0 0 7 0;
#X connect 0 0 5 0;
#X connect 0 0 3 0;
#X connect 0 0 11 0;
#X connect 1 0 24 0;
#X connect 2 0 24 0;
#X connect 3 0 19 0;
#X connect 4 0 24 0;
#X connect 5 0 20 0;
#X connect 6 0 24 0;
#X connect 7 0 21 0;
#X connect 8 0 24 0;
#X connect 9 0 22 0;
#X connect 10 0 24 0;
#X connect 11 0 18 0;
#X connect 12 0 17 1;
#X connect 12 0 16 1;
#X connect 12 0 15 1;
#X connect 12 0 14 1;
#X connect 12 0 23 0;
#X connect 12 0 13 0;
#X connect 13 0 0 0;
#X connect 14 0 3 1;
#X connect 14 0 15 0;
#X connect 15 0 5 1;
#X connect 15 0 16 0;
#X connect 16 0 7 1;
#X connect 16 0 17 0;
#X connect 17 0 9 1;
#X connect 18 0 10 0;
#X connect 19 0 2 0;
#X connect 20 0 4 0;
#X connect 21 0 6 0;
#X connect 22 0 8 0;
#X connect 23 0 11 1;
#X connect 23 0 14 0;
#X connect 24 0 27 0;
#X connect 25 0 0 0;
#X connect 26 0 12 0;
#X restore 131 216 pd additive;
#X connect 2 0 3 0;
#X connect 3 0 4 0;
#X connect 4 0 8 0;
#X connect 5 0 6 0;
#X connect 6 0 7 0;
#X connect 7 0 8 1;
#X connect 8 0 0 0;
