#N canvas 960 63 960 994 10;
#X obj 117 207 snapshot~;
#X obj 288 92 loadbang;
#X obj 288 120 tgl 15 0 empty empty empty 17 7 0 10 -262144 -1 -1 1
1;
#X obj 289 147 metro 100;
#X obj 234 208 snapshot~;
#X obj 146 244 pack 0 0;
#X obj 146 284 print;
#X text 17 41 https://puredata.info/docs/tutorials/pd-refcard;
#X obj 117 129 adc~ 3 4 5 6 7;
#X connect 0 0 5 0;
#X connect 1 0 2 0;
#X connect 2 0 3 0;
#X connect 3 0 0 0;
#X connect 3 0 4 0;
#X connect 4 0 5 1;
#X connect 5 0 6 0;
#X connect 8 0 0 0;
#X connect 8 1 4 0;
#X connect 8 2 4 0;
#X connect 8 3 4 0;
#X connect 8 4 4 0;
